<mxfile host="Electron" modified="2024-05-15T09:55:31.223Z" agent="Mozilla/5.0 (Windows NT 10.0; Win64; x64) AppleWebKit/537.36 (KHTML, like Gecko) draw.io/24.4.0 Chrome/120.0.6099.109 Electron/28.1.0 Safari/537.36" etag="-DBtoB_RRt_h-qhDdS7r" version="24.4.0" type="device">
  <diagram name="第 1 页" id="VvnD1uf28huWxOb_pR6d">
    <mxGraphModel dx="1994" dy="690" grid="1" gridSize="10" guides="1" tooltips="1" connect="1" arrows="1" fold="1" page="1" pageScale="1" pageWidth="827" pageHeight="1169" math="0" shadow="0">
      <root>
        <mxCell id="0" />
        <mxCell id="1" parent="0" />
        <mxCell id="-TvTE6vRX-gle3-zoLTQ-3" value="" style="edgeStyle=orthogonalEdgeStyle;rounded=0;orthogonalLoop=1;jettySize=auto;html=1;" parent="1" source="-TvTE6vRX-gle3-zoLTQ-1" target="-TvTE6vRX-gle3-zoLTQ-2" edge="1">
          <mxGeometry relative="1" as="geometry" />
        </mxCell>
        <mxCell id="-TvTE6vRX-gle3-zoLTQ-1" value="_start&lt;div style=&quot;font-size: 14px;&quot;&gt;in&lt;/div&gt;&lt;div style=&quot;font-size: 14px;&quot;&gt;init/start.S&lt;/div&gt;" style="rounded=1;whiteSpace=wrap;html=1;fontFamily=Lucida Console;fontSize=14;fontStyle=1" parent="1" vertex="1">
          <mxGeometry x="424" y="180" width="120" height="60" as="geometry" />
        </mxCell>
        <mxCell id="-TvTE6vRX-gle3-zoLTQ-6" value="" style="edgeStyle=orthogonalEdgeStyle;rounded=0;orthogonalLoop=1;jettySize=auto;html=1;fontSize=11;strokeWidth=3;" parent="1" source="-TvTE6vRX-gle3-zoLTQ-2" target="-TvTE6vRX-gle3-zoLTQ-5" edge="1">
          <mxGeometry relative="1" as="geometry" />
        </mxCell>
        <mxCell id="-TvTE6vRX-gle3-zoLTQ-25" value="" style="edgeStyle=orthogonalEdgeStyle;rounded=0;orthogonalLoop=1;jettySize=auto;html=1;strokeWidth=3;" parent="1" source="-TvTE6vRX-gle3-zoLTQ-2" target="-TvTE6vRX-gle3-zoLTQ-24" edge="1">
          <mxGeometry relative="1" as="geometry" />
        </mxCell>
        <mxCell id="-TvTE6vRX-gle3-zoLTQ-29" value="" style="edgeStyle=orthogonalEdgeStyle;rounded=0;orthogonalLoop=1;jettySize=auto;html=1;strokeWidth=3;" parent="1" source="-TvTE6vRX-gle3-zoLTQ-2" target="-TvTE6vRX-gle3-zoLTQ-28" edge="1">
          <mxGeometry relative="1" as="geometry" />
        </mxCell>
        <mxCell id="-TvTE6vRX-gle3-zoLTQ-35" style="edgeStyle=orthogonalEdgeStyle;rounded=0;orthogonalLoop=1;jettySize=auto;html=1;exitX=0.25;exitY=1;exitDx=0;exitDy=0;entryX=0.5;entryY=0;entryDx=0;entryDy=0;strokeWidth=3;" parent="1" source="-TvTE6vRX-gle3-zoLTQ-2" target="-TvTE6vRX-gle3-zoLTQ-33" edge="1">
          <mxGeometry relative="1" as="geometry">
            <Array as="points">
              <mxPoint x="454" y="400" />
              <mxPoint x="290" y="400" />
            </Array>
          </mxGeometry>
        </mxCell>
        <mxCell id="-TvTE6vRX-gle3-zoLTQ-47" style="edgeStyle=orthogonalEdgeStyle;rounded=0;orthogonalLoop=1;jettySize=auto;html=1;exitX=0.75;exitY=1;exitDx=0;exitDy=0;entryX=0;entryY=0.5;entryDx=0;entryDy=0;strokeWidth=3;" parent="1" source="-TvTE6vRX-gle3-zoLTQ-2" target="-TvTE6vRX-gle3-zoLTQ-46" edge="1">
          <mxGeometry relative="1" as="geometry">
            <Array as="points">
              <mxPoint x="514" y="400" />
              <mxPoint x="570" y="400" />
              <mxPoint x="570" y="540" />
            </Array>
          </mxGeometry>
        </mxCell>
        <mxCell id="-TvTE6vRX-gle3-zoLTQ-123" style="edgeStyle=orthogonalEdgeStyle;rounded=0;orthogonalLoop=1;jettySize=auto;html=1;exitX=1;exitY=0.25;exitDx=0;exitDy=0;entryX=0.5;entryY=1;entryDx=0;entryDy=0;strokeWidth=3;" parent="1" source="-TvTE6vRX-gle3-zoLTQ-2" target="-TvTE6vRX-gle3-zoLTQ-92" edge="1">
          <mxGeometry relative="1" as="geometry">
            <Array as="points">
              <mxPoint x="580" y="315" />
              <mxPoint x="580" y="270" />
              <mxPoint x="680" y="270" />
            </Array>
          </mxGeometry>
        </mxCell>
        <mxCell id="-TvTE6vRX-gle3-zoLTQ-124" style="edgeStyle=orthogonalEdgeStyle;rounded=0;orthogonalLoop=1;jettySize=auto;html=1;exitX=0.75;exitY=0;exitDx=0;exitDy=0;entryX=0.5;entryY=0;entryDx=0;entryDy=0;strokeWidth=3;" parent="1" source="-TvTE6vRX-gle3-zoLTQ-2" target="-TvTE6vRX-gle3-zoLTQ-121" edge="1">
          <mxGeometry relative="1" as="geometry">
            <Array as="points">
              <mxPoint x="514" y="280" />
              <mxPoint x="560" y="280" />
              <mxPoint x="560" y="40" />
              <mxPoint x="1390" y="40" />
            </Array>
          </mxGeometry>
        </mxCell>
        <mxCell id="-TvTE6vRX-gle3-zoLTQ-2" value="mips_init&lt;div style=&quot;font-size: 14px;&quot;&gt;in&lt;/div&gt;&lt;div style=&quot;font-size: 14px;&quot;&gt;init/init.c&lt;/div&gt;" style="rounded=1;whiteSpace=wrap;html=1;fontFamily=Lucida Console;fontSize=14;fontStyle=1" parent="1" vertex="1">
          <mxGeometry x="424" y="300" width="120" height="60" as="geometry" />
        </mxCell>
        <mxCell id="-TvTE6vRX-gle3-zoLTQ-8" value="" style="edgeStyle=orthogonalEdgeStyle;rounded=0;orthogonalLoop=1;jettySize=auto;html=1;" parent="1" source="-TvTE6vRX-gle3-zoLTQ-5" target="-TvTE6vRX-gle3-zoLTQ-7" edge="1">
          <mxGeometry relative="1" as="geometry" />
        </mxCell>
        <mxCell id="-TvTE6vRX-gle3-zoLTQ-10" value="" style="edgeStyle=orthogonalEdgeStyle;rounded=0;orthogonalLoop=1;jettySize=auto;html=1;" parent="1" source="-TvTE6vRX-gle3-zoLTQ-5" target="-TvTE6vRX-gle3-zoLTQ-9" edge="1">
          <mxGeometry relative="1" as="geometry" />
        </mxCell>
        <mxCell id="-TvTE6vRX-gle3-zoLTQ-5" value="printk&lt;div style=&quot;font-size: 14px;&quot;&gt;in&lt;/div&gt;&lt;div style=&quot;font-size: 14px;&quot;&gt;kern/printk.c&lt;/div&gt;" style="rounded=1;whiteSpace=wrap;html=1;fontSize=14;fontFamily=Lucida Console;fontStyle=1" parent="1" vertex="1">
          <mxGeometry x="230" y="300" width="120" height="60" as="geometry" />
        </mxCell>
        <mxCell id="-TvTE6vRX-gle3-zoLTQ-13" style="edgeStyle=orthogonalEdgeStyle;rounded=0;orthogonalLoop=1;jettySize=auto;html=1;exitX=0;exitY=0.5;exitDx=0;exitDy=0;entryX=0.5;entryY=0;entryDx=0;entryDy=0;" parent="1" source="-TvTE6vRX-gle3-zoLTQ-7" target="-TvTE6vRX-gle3-zoLTQ-9" edge="1">
          <mxGeometry relative="1" as="geometry" />
        </mxCell>
        <mxCell id="-TvTE6vRX-gle3-zoLTQ-17" style="edgeStyle=orthogonalEdgeStyle;rounded=0;orthogonalLoop=1;jettySize=auto;html=1;exitX=0.5;exitY=0;exitDx=0;exitDy=0;entryX=0.5;entryY=1;entryDx=0;entryDy=0;" parent="1" source="-TvTE6vRX-gle3-zoLTQ-7" target="-TvTE6vRX-gle3-zoLTQ-14" edge="1">
          <mxGeometry relative="1" as="geometry" />
        </mxCell>
        <mxCell id="-TvTE6vRX-gle3-zoLTQ-18" style="edgeStyle=orthogonalEdgeStyle;rounded=0;orthogonalLoop=1;jettySize=auto;html=1;exitX=0.5;exitY=0;exitDx=0;exitDy=0;entryX=0.5;entryY=1;entryDx=0;entryDy=0;" parent="1" source="-TvTE6vRX-gle3-zoLTQ-7" target="-TvTE6vRX-gle3-zoLTQ-16" edge="1">
          <mxGeometry relative="1" as="geometry" />
        </mxCell>
        <mxCell id="-TvTE6vRX-gle3-zoLTQ-19" style="edgeStyle=orthogonalEdgeStyle;rounded=0;orthogonalLoop=1;jettySize=auto;html=1;exitX=0.5;exitY=0;exitDx=0;exitDy=0;entryX=0.5;entryY=1;entryDx=0;entryDy=0;" parent="1" source="-TvTE6vRX-gle3-zoLTQ-7" target="-TvTE6vRX-gle3-zoLTQ-15" edge="1">
          <mxGeometry relative="1" as="geometry" />
        </mxCell>
        <mxCell id="-TvTE6vRX-gle3-zoLTQ-7" value="vprintfmt&lt;div style=&quot;font-size: 14px;&quot;&gt;in&lt;/div&gt;&lt;div style=&quot;font-size: 14px;&quot;&gt;lib/print.c&lt;/div&gt;" style="rounded=1;whiteSpace=wrap;html=1;fontSize=14;fontStyle=1;fontFamily=Lucida Console;" parent="1" vertex="1">
          <mxGeometry x="230" y="180" width="120" height="60" as="geometry" />
        </mxCell>
        <mxCell id="-TvTE6vRX-gle3-zoLTQ-12" value="" style="edgeStyle=orthogonalEdgeStyle;rounded=0;orthogonalLoop=1;jettySize=auto;html=1;" parent="1" source="-TvTE6vRX-gle3-zoLTQ-9" target="-TvTE6vRX-gle3-zoLTQ-11" edge="1">
          <mxGeometry relative="1" as="geometry" />
        </mxCell>
        <mxCell id="-TvTE6vRX-gle3-zoLTQ-9" value="outputk&lt;div style=&quot;font-size: 14px;&quot;&gt;in&lt;/div&gt;&lt;div style=&quot;font-size: 14px;&quot;&gt;kern/printk.c&lt;/div&gt;" style="rounded=1;whiteSpace=wrap;html=1;fontFamily=Lucida Console;fontSize=14;fontStyle=1" parent="1" vertex="1">
          <mxGeometry x="80" y="300" width="120" height="60" as="geometry" />
        </mxCell>
        <mxCell id="-TvTE6vRX-gle3-zoLTQ-11" value="printcharc&lt;div style=&quot;font-size: 14px;&quot;&gt;in&lt;/div&gt;&lt;div style=&quot;font-size: 14px;&quot;&gt;kern/machine.c&lt;/div&gt;" style="ellipse;whiteSpace=wrap;html=1;fontFamily=Lucida Console;fontSize=14;fontStyle=1" parent="1" vertex="1">
          <mxGeometry x="60" y="410" width="160" height="80" as="geometry" />
        </mxCell>
        <mxCell id="-TvTE6vRX-gle3-zoLTQ-21" style="edgeStyle=orthogonalEdgeStyle;rounded=0;orthogonalLoop=1;jettySize=auto;html=1;entryX=0;entryY=0.5;entryDx=0;entryDy=0;" parent="1" source="-TvTE6vRX-gle3-zoLTQ-14" target="-TvTE6vRX-gle3-zoLTQ-9" edge="1">
          <mxGeometry relative="1" as="geometry">
            <Array as="points">
              <mxPoint x="290" y="60" />
              <mxPoint x="40" y="60" />
              <mxPoint x="40" y="330" />
            </Array>
          </mxGeometry>
        </mxCell>
        <mxCell id="-TvTE6vRX-gle3-zoLTQ-14" value="print_char&lt;div style=&quot;font-size: 14px;&quot;&gt;in&lt;/div&gt;&lt;div style=&quot;font-size: 14px;&quot;&gt;lib/print.c&lt;/div&gt;" style="rounded=1;whiteSpace=wrap;html=1;fontFamily=Lucida Console;fontSize=14;fontStyle=1" parent="1" vertex="1">
          <mxGeometry x="230" y="80" width="120" height="60" as="geometry" />
        </mxCell>
        <mxCell id="-TvTE6vRX-gle3-zoLTQ-22" style="edgeStyle=orthogonalEdgeStyle;rounded=0;orthogonalLoop=1;jettySize=auto;html=1;entryX=0;entryY=0.25;entryDx=0;entryDy=0;" parent="1" source="-TvTE6vRX-gle3-zoLTQ-15" target="-TvTE6vRX-gle3-zoLTQ-9" edge="1">
          <mxGeometry relative="1" as="geometry">
            <Array as="points">
              <mxPoint x="60" y="110" />
              <mxPoint x="60" y="315" />
            </Array>
          </mxGeometry>
        </mxCell>
        <mxCell id="-TvTE6vRX-gle3-zoLTQ-15" value="print_str&lt;div style=&quot;font-size: 14px;&quot;&gt;in&lt;/div&gt;&lt;div style=&quot;font-size: 14px;&quot;&gt;lib/print.c&lt;/div&gt;" style="rounded=1;whiteSpace=wrap;html=1;fontFamily=Lucida Console;fontSize=14;fontStyle=1" parent="1" vertex="1">
          <mxGeometry x="100" y="80" width="120" height="60" as="geometry" />
        </mxCell>
        <mxCell id="-TvTE6vRX-gle3-zoLTQ-23" style="edgeStyle=orthogonalEdgeStyle;rounded=0;orthogonalLoop=1;jettySize=auto;html=1;entryX=0;entryY=0.75;entryDx=0;entryDy=0;" parent="1" source="-TvTE6vRX-gle3-zoLTQ-16" target="-TvTE6vRX-gle3-zoLTQ-9" edge="1">
          <mxGeometry relative="1" as="geometry">
            <Array as="points">
              <mxPoint x="420" y="40" />
              <mxPoint x="20" y="40" />
              <mxPoint x="20" y="345" />
            </Array>
          </mxGeometry>
        </mxCell>
        <mxCell id="-TvTE6vRX-gle3-zoLTQ-16" value="print_num&lt;div style=&quot;font-size: 14px;&quot;&gt;in&lt;/div&gt;&lt;div style=&quot;font-size: 14px;&quot;&gt;lib/print.c&lt;/div&gt;" style="rounded=1;whiteSpace=wrap;html=1;fontFamily=Lucida Console;fontSize=14;fontStyle=1" parent="1" vertex="1">
          <mxGeometry x="360" y="80" width="120" height="60" as="geometry" />
        </mxCell>
        <mxCell id="-TvTE6vRX-gle3-zoLTQ-27" style="edgeStyle=orthogonalEdgeStyle;rounded=0;orthogonalLoop=1;jettySize=auto;html=1;entryX=0.75;entryY=1;entryDx=0;entryDy=0;" parent="1" source="-TvTE6vRX-gle3-zoLTQ-24" target="-TvTE6vRX-gle3-zoLTQ-5" edge="1">
          <mxGeometry relative="1" as="geometry">
            <Array as="points">
              <mxPoint x="680" y="380" />
              <mxPoint x="320" y="380" />
            </Array>
          </mxGeometry>
        </mxCell>
        <mxCell id="-TvTE6vRX-gle3-zoLTQ-24" value="mips_detect_memory&lt;div style=&quot;font-size: 14px;&quot;&gt;in&lt;/div&gt;&lt;div style=&quot;font-size: 14px;&quot;&gt;kern/pmap.c&lt;/div&gt;" style="rounded=1;whiteSpace=wrap;html=1;fontFamily=Lucida Console;fontSize=14;fontStyle=1" parent="1" vertex="1">
          <mxGeometry x="590" y="300" width="180" height="60" as="geometry" />
        </mxCell>
        <mxCell id="-TvTE6vRX-gle3-zoLTQ-31" value="" style="edgeStyle=orthogonalEdgeStyle;rounded=0;orthogonalLoop=1;jettySize=auto;html=1;" parent="1" source="-TvTE6vRX-gle3-zoLTQ-28" target="-TvTE6vRX-gle3-zoLTQ-30" edge="1">
          <mxGeometry relative="1" as="geometry" />
        </mxCell>
        <mxCell id="-TvTE6vRX-gle3-zoLTQ-28" value="mips_vm_init&lt;div style=&quot;font-size: 14px;&quot;&gt;in&lt;/div&gt;&lt;div style=&quot;font-size: 14px;&quot;&gt;kern/pmap.c&lt;/div&gt;" style="rounded=1;whiteSpace=wrap;html=1;fontFamily=Lucida Console;fontSize=14;fontStyle=1" parent="1" vertex="1">
          <mxGeometry x="424" y="420" width="120" height="60" as="geometry" />
        </mxCell>
        <mxCell id="-TvTE6vRX-gle3-zoLTQ-30" value="alloc&lt;div&gt;in&lt;/div&gt;&lt;div&gt;kern/pmap.c&lt;/div&gt;" style="ellipse;whiteSpace=wrap;html=1;fontFamily=Lucida Console;fontSize=14;fontStyle=1" parent="1" vertex="1">
          <mxGeometry x="610" y="410" width="160" height="80" as="geometry" />
        </mxCell>
        <mxCell id="-TvTE6vRX-gle3-zoLTQ-32" style="edgeStyle=orthogonalEdgeStyle;rounded=0;orthogonalLoop=1;jettySize=auto;html=1;entryX=0.617;entryY=1.01;entryDx=0;entryDy=0;entryPerimeter=0;" parent="1" source="-TvTE6vRX-gle3-zoLTQ-28" target="-TvTE6vRX-gle3-zoLTQ-5" edge="1">
          <mxGeometry relative="1" as="geometry" />
        </mxCell>
        <mxCell id="-TvTE6vRX-gle3-zoLTQ-33" value="page_init&lt;div style=&quot;font-size: 14px;&quot;&gt;in&lt;/div&gt;&lt;div style=&quot;font-size: 14px;&quot;&gt;kern/pmap.c&lt;/div&gt;" style="rounded=1;whiteSpace=wrap;html=1;fontFamily=Lucida Console;fontSize=14;fontStyle=1" parent="1" vertex="1">
          <mxGeometry x="230" y="510" width="120" height="60" as="geometry" />
        </mxCell>
        <mxCell id="-TvTE6vRX-gle3-zoLTQ-50" value="" style="edgeStyle=orthogonalEdgeStyle;rounded=0;orthogonalLoop=1;jettySize=auto;html=1;" parent="1" source="-TvTE6vRX-gle3-zoLTQ-46" target="-TvTE6vRX-gle3-zoLTQ-49" edge="1">
          <mxGeometry relative="1" as="geometry" />
        </mxCell>
        <mxCell id="-TvTE6vRX-gle3-zoLTQ-57" style="edgeStyle=orthogonalEdgeStyle;rounded=0;orthogonalLoop=1;jettySize=auto;html=1;exitX=1;exitY=0.5;exitDx=0;exitDy=0;entryX=1;entryY=0.5;entryDx=0;entryDy=0;" parent="1" source="-TvTE6vRX-gle3-zoLTQ-46" target="-TvTE6vRX-gle3-zoLTQ-51" edge="1">
          <mxGeometry relative="1" as="geometry" />
        </mxCell>
        <mxCell id="-TvTE6vRX-gle3-zoLTQ-60" style="edgeStyle=orthogonalEdgeStyle;rounded=0;orthogonalLoop=1;jettySize=auto;html=1;exitX=0.25;exitY=1;exitDx=0;exitDy=0;entryX=0.5;entryY=0;entryDx=0;entryDy=0;" parent="1" source="-TvTE6vRX-gle3-zoLTQ-46" target="-TvTE6vRX-gle3-zoLTQ-58" edge="1">
          <mxGeometry relative="1" as="geometry" />
        </mxCell>
        <mxCell id="-TvTE6vRX-gle3-zoLTQ-46" value="env_init&lt;div style=&quot;font-size: 14px;&quot;&gt;in&lt;/div&gt;&lt;div style=&quot;font-size: 14px;&quot;&gt;kern/env.c&lt;/div&gt;" style="rounded=1;whiteSpace=wrap;html=1;fontFamily=Lucida Console;fontSize=14;fontStyle=1" parent="1" vertex="1">
          <mxGeometry x="620" y="510" width="120" height="60" as="geometry" />
        </mxCell>
        <mxCell id="-TvTE6vRX-gle3-zoLTQ-52" value="" style="edgeStyle=orthogonalEdgeStyle;rounded=0;orthogonalLoop=1;jettySize=auto;html=1;" parent="1" source="-TvTE6vRX-gle3-zoLTQ-49" target="-TvTE6vRX-gle3-zoLTQ-51" edge="1">
          <mxGeometry relative="1" as="geometry" />
        </mxCell>
        <mxCell id="-TvTE6vRX-gle3-zoLTQ-49" value="page_alloc&lt;div style=&quot;font-size: 14px;&quot;&gt;in&lt;/div&gt;&lt;div style=&quot;font-size: 14px;&quot;&gt;kern/pmap.c&lt;/div&gt;" style="rounded=1;whiteSpace=wrap;html=1;fontSize=14;fontFamily=Lucida Console;fontStyle=1" parent="1" vertex="1">
          <mxGeometry x="620" y="610" width="120" height="60" as="geometry" />
        </mxCell>
        <mxCell id="-TvTE6vRX-gle3-zoLTQ-54" value="" style="edgeStyle=orthogonalEdgeStyle;rounded=0;orthogonalLoop=1;jettySize=auto;html=1;" parent="1" source="-TvTE6vRX-gle3-zoLTQ-51" target="-TvTE6vRX-gle3-zoLTQ-53" edge="1">
          <mxGeometry relative="1" as="geometry" />
        </mxCell>
        <mxCell id="-TvTE6vRX-gle3-zoLTQ-51" value="page2kva&lt;div style=&quot;font-size: 14px;&quot;&gt;in&lt;/div&gt;&lt;div style=&quot;font-size: 14px;&quot;&gt;include/pmap.h&lt;/div&gt;" style="rounded=1;whiteSpace=wrap;html=1;fontFamily=Lucida Console;fontSize=14;fontStyle=1" parent="1" vertex="1">
          <mxGeometry x="620" y="710" width="120" height="60" as="geometry" />
        </mxCell>
        <mxCell id="-TvTE6vRX-gle3-zoLTQ-56" value="" style="edgeStyle=orthogonalEdgeStyle;rounded=0;orthogonalLoop=1;jettySize=auto;html=1;" parent="1" source="-TvTE6vRX-gle3-zoLTQ-53" target="-TvTE6vRX-gle3-zoLTQ-55" edge="1">
          <mxGeometry relative="1" as="geometry" />
        </mxCell>
        <mxCell id="-TvTE6vRX-gle3-zoLTQ-53" value="page2pa&lt;div style=&quot;font-size: 14px;&quot;&gt;in&lt;/div&gt;&lt;div style=&quot;font-size: 14px;&quot;&gt;include/pmap.h&lt;/div&gt;" style="rounded=1;whiteSpace=wrap;html=1;fontFamily=Lucida Console;fontSize=14;fontStyle=1" parent="1" vertex="1">
          <mxGeometry x="620" y="810" width="120" height="60" as="geometry" />
        </mxCell>
        <mxCell id="-TvTE6vRX-gle3-zoLTQ-55" value="page2ppn&lt;div style=&quot;font-size: 14px;&quot;&gt;in&lt;/div&gt;&lt;div style=&quot;font-size: 14px;&quot;&gt;include/pmap.h&lt;/div&gt;" style="rounded=1;whiteSpace=wrap;html=1;fontFamily=Lucida Console;fontSize=14;fontStyle=1" parent="1" vertex="1">
          <mxGeometry x="620" y="910" width="120" height="60" as="geometry" />
        </mxCell>
        <mxCell id="-TvTE6vRX-gle3-zoLTQ-62" value="" style="edgeStyle=orthogonalEdgeStyle;rounded=0;orthogonalLoop=1;jettySize=auto;html=1;" parent="1" source="-TvTE6vRX-gle3-zoLTQ-58" target="-TvTE6vRX-gle3-zoLTQ-61" edge="1">
          <mxGeometry relative="1" as="geometry" />
        </mxCell>
        <mxCell id="-TvTE6vRX-gle3-zoLTQ-88" style="edgeStyle=orthogonalEdgeStyle;rounded=0;orthogonalLoop=1;jettySize=auto;html=1;entryX=0;entryY=0.25;entryDx=0;entryDy=0;" parent="1" source="-TvTE6vRX-gle3-zoLTQ-58" target="-TvTE6vRX-gle3-zoLTQ-69" edge="1">
          <mxGeometry relative="1" as="geometry" />
        </mxCell>
        <mxCell id="-TvTE6vRX-gle3-zoLTQ-58" value="map_segment&lt;div style=&quot;font-size: 14px;&quot;&gt;in&lt;/div&gt;&lt;div style=&quot;font-size: 14px;&quot;&gt;kern/env.c&lt;/div&gt;" style="rounded=1;whiteSpace=wrap;fontFamily=Lucida Console;html=1;fontSize=14;fontStyle=1" parent="1" vertex="1">
          <mxGeometry x="440" y="610" width="120" height="60" as="geometry" />
        </mxCell>
        <mxCell id="-TvTE6vRX-gle3-zoLTQ-64" value="" style="edgeStyle=orthogonalEdgeStyle;rounded=0;orthogonalLoop=1;jettySize=auto;html=1;" parent="1" source="-TvTE6vRX-gle3-zoLTQ-61" target="-TvTE6vRX-gle3-zoLTQ-63" edge="1">
          <mxGeometry relative="1" as="geometry" />
        </mxCell>
        <mxCell id="-TvTE6vRX-gle3-zoLTQ-68" value="" style="edgeStyle=orthogonalEdgeStyle;rounded=0;orthogonalLoop=1;jettySize=auto;html=1;" parent="1" source="-TvTE6vRX-gle3-zoLTQ-61" target="-TvTE6vRX-gle3-zoLTQ-67" edge="1">
          <mxGeometry relative="1" as="geometry" />
        </mxCell>
        <mxCell id="-TvTE6vRX-gle3-zoLTQ-71" style="edgeStyle=orthogonalEdgeStyle;rounded=0;orthogonalLoop=1;jettySize=auto;html=1;exitX=0.75;exitY=1;exitDx=0;exitDy=0;entryX=0;entryY=0.5;entryDx=0;entryDy=0;" parent="1" source="-TvTE6vRX-gle3-zoLTQ-61" target="-TvTE6vRX-gle3-zoLTQ-69" edge="1">
          <mxGeometry relative="1" as="geometry">
            <Array as="points">
              <mxPoint x="320" y="710" />
              <mxPoint x="410" y="710" />
              <mxPoint x="410" y="1040" />
            </Array>
          </mxGeometry>
        </mxCell>
        <mxCell id="-TvTE6vRX-gle3-zoLTQ-89" style="edgeStyle=orthogonalEdgeStyle;rounded=0;orthogonalLoop=1;jettySize=auto;html=1;exitX=1;exitY=0.75;exitDx=0;exitDy=0;entryX=0.5;entryY=0;entryDx=0;entryDy=0;" parent="1" source="-TvTE6vRX-gle3-zoLTQ-61" target="-TvTE6vRX-gle3-zoLTQ-82" edge="1">
          <mxGeometry relative="1" as="geometry">
            <Array as="points">
              <mxPoint x="380" y="655" />
              <mxPoint x="380" y="680" />
              <mxPoint x="500" y="680" />
            </Array>
          </mxGeometry>
        </mxCell>
        <mxCell id="-TvTE6vRX-gle3-zoLTQ-91" style="edgeStyle=orthogonalEdgeStyle;rounded=0;orthogonalLoop=1;jettySize=auto;html=1;exitX=0;exitY=0.75;exitDx=0;exitDy=0;entryX=0;entryY=0.25;entryDx=0;entryDy=0;" parent="1" source="-TvTE6vRX-gle3-zoLTQ-61" target="-TvTE6vRX-gle3-zoLTQ-53" edge="1">
          <mxGeometry relative="1" as="geometry" />
        </mxCell>
        <mxCell id="-TvTE6vRX-gle3-zoLTQ-61" value="page_insert&lt;div style=&quot;font-size: 14px;&quot;&gt;in&lt;/div&gt;&lt;div style=&quot;font-size: 14px;&quot;&gt;kern/pmap.c&lt;/div&gt;" style="rounded=1;whiteSpace=wrap;html=1;fontFamily=Lucida Console;fontSize=14;fontStyle=1" parent="1" vertex="1">
          <mxGeometry x="230" y="610" width="120" height="60" as="geometry" />
        </mxCell>
        <mxCell id="-TvTE6vRX-gle3-zoLTQ-65" style="edgeStyle=orthogonalEdgeStyle;rounded=0;orthogonalLoop=1;jettySize=auto;html=1;exitX=0.75;exitY=1;exitDx=0;exitDy=0;entryX=0.25;entryY=1;entryDx=0;entryDy=0;" parent="1" source="-TvTE6vRX-gle3-zoLTQ-63" target="-TvTE6vRX-gle3-zoLTQ-49" edge="1">
          <mxGeometry relative="1" as="geometry" />
        </mxCell>
        <mxCell id="-TvTE6vRX-gle3-zoLTQ-66" style="edgeStyle=orthogonalEdgeStyle;rounded=0;orthogonalLoop=1;jettySize=auto;html=1;exitX=0.5;exitY=1;exitDx=0;exitDy=0;entryX=0;entryY=0.5;entryDx=0;entryDy=0;" parent="1" source="-TvTE6vRX-gle3-zoLTQ-63" target="-TvTE6vRX-gle3-zoLTQ-53" edge="1">
          <mxGeometry relative="1" as="geometry" />
        </mxCell>
        <mxCell id="-TvTE6vRX-gle3-zoLTQ-63" value="pgdir_walk&lt;div style=&quot;font-size: 14px;&quot;&gt;in&lt;/div&gt;&lt;div style=&quot;font-size: 14px;&quot;&gt;kern/pmap.c&lt;/div&gt;" style="rounded=1;whiteSpace=wrap;html=1;fontFamily=Lucida Console;fontSize=14;fontStyle=1" parent="1" vertex="1">
          <mxGeometry x="80" y="610" width="120" height="60" as="geometry" />
        </mxCell>
        <mxCell id="-TvTE6vRX-gle3-zoLTQ-73" value="" style="edgeStyle=orthogonalEdgeStyle;rounded=0;orthogonalLoop=1;jettySize=auto;html=1;" parent="1" source="-TvTE6vRX-gle3-zoLTQ-67" target="-TvTE6vRX-gle3-zoLTQ-72" edge="1">
          <mxGeometry relative="1" as="geometry" />
        </mxCell>
        <mxCell id="-TvTE6vRX-gle3-zoLTQ-77" value="" style="edgeStyle=orthogonalEdgeStyle;rounded=0;orthogonalLoop=1;jettySize=auto;html=1;" parent="1" source="-TvTE6vRX-gle3-zoLTQ-67" target="-TvTE6vRX-gle3-zoLTQ-76" edge="1">
          <mxGeometry relative="1" as="geometry" />
        </mxCell>
        <mxCell id="-TvTE6vRX-gle3-zoLTQ-84" value="" style="edgeStyle=orthogonalEdgeStyle;rounded=0;orthogonalLoop=1;jettySize=auto;html=1;" parent="1" source="-TvTE6vRX-gle3-zoLTQ-67" target="-TvTE6vRX-gle3-zoLTQ-82" edge="1">
          <mxGeometry relative="1" as="geometry" />
        </mxCell>
        <mxCell id="-TvTE6vRX-gle3-zoLTQ-67" value="page_remove&lt;div style=&quot;font-size: 14px;&quot;&gt;in&lt;/div&gt;&lt;div style=&quot;font-size: 14px;&quot;&gt;kern/pmap.c&lt;/div&gt;" style="rounded=1;whiteSpace=wrap;html=1;fontFamily=Lucida Console;fontSize=14;fontStyle=1" parent="1" vertex="1">
          <mxGeometry x="230" y="730" width="120" height="60" as="geometry" />
        </mxCell>
        <mxCell id="-TvTE6vRX-gle3-zoLTQ-69" value="pa2page&lt;div style=&quot;font-size: 14px;&quot;&gt;in&lt;/div&gt;&lt;div style=&quot;font-size: 14px;&quot;&gt;include/pmap.h&lt;/div&gt;" style="rounded=1;whiteSpace=wrap;html=1;fontFamily=Lucida Console;fontSize=14;fontStyle=1" parent="1" vertex="1">
          <mxGeometry x="620" y="1010" width="120" height="60" as="geometry" />
        </mxCell>
        <mxCell id="-TvTE6vRX-gle3-zoLTQ-74" style="edgeStyle=orthogonalEdgeStyle;rounded=0;orthogonalLoop=1;jettySize=auto;html=1;entryX=0;entryY=0.5;entryDx=0;entryDy=0;" parent="1" source="-TvTE6vRX-gle3-zoLTQ-72" target="-TvTE6vRX-gle3-zoLTQ-63" edge="1">
          <mxGeometry relative="1" as="geometry" />
        </mxCell>
        <mxCell id="-TvTE6vRX-gle3-zoLTQ-75" style="edgeStyle=orthogonalEdgeStyle;rounded=0;orthogonalLoop=1;jettySize=auto;html=1;exitX=0.5;exitY=1;exitDx=0;exitDy=0;entryX=0;entryY=0.75;entryDx=0;entryDy=0;" parent="1" source="-TvTE6vRX-gle3-zoLTQ-72" target="-TvTE6vRX-gle3-zoLTQ-69" edge="1">
          <mxGeometry relative="1" as="geometry" />
        </mxCell>
        <mxCell id="-TvTE6vRX-gle3-zoLTQ-72" value="page_lookup&lt;div style=&quot;font-size: 14px;&quot;&gt;in&lt;/div&gt;&lt;div style=&quot;font-size: 14px;&quot;&gt;kern/pmap.c&lt;/div&gt;" style="rounded=1;whiteSpace=wrap;html=1;fontSize=14;fontFamily=Lucida Console;fontStyle=1" parent="1" vertex="1">
          <mxGeometry y="730" width="120" height="60" as="geometry" />
        </mxCell>
        <mxCell id="-TvTE6vRX-gle3-zoLTQ-80" value="" style="edgeStyle=orthogonalEdgeStyle;rounded=0;orthogonalLoop=1;jettySize=auto;html=1;" parent="1" source="-TvTE6vRX-gle3-zoLTQ-76" target="-TvTE6vRX-gle3-zoLTQ-79" edge="1">
          <mxGeometry relative="1" as="geometry" />
        </mxCell>
        <mxCell id="-TvTE6vRX-gle3-zoLTQ-76" value="page_decref&lt;div style=&quot;font-size: 14px;&quot;&gt;in&lt;/div&gt;&lt;div style=&quot;font-size: 14px;&quot;&gt;kern/pmap.c&lt;/div&gt;" style="rounded=1;whiteSpace=wrap;html=1;fontSize=14;fontFamily=Lucida Console;fontStyle=1" parent="1" vertex="1">
          <mxGeometry x="230" y="870" width="120" height="60" as="geometry" />
        </mxCell>
        <mxCell id="-TvTE6vRX-gle3-zoLTQ-79" value="page_free&lt;div style=&quot;font-size: 14px;&quot;&gt;in&lt;/div&gt;&lt;div style=&quot;font-size: 14px;&quot;&gt;kern/pmap.c&lt;/div&gt;" style="ellipse;whiteSpace=wrap;html=1;fontFamily=Lucida Console;fontSize=14;fontStyle=1" parent="1" vertex="1">
          <mxGeometry x="80" y="860" width="120" height="80" as="geometry" />
        </mxCell>
        <mxCell id="-TvTE6vRX-gle3-zoLTQ-87" value="" style="edgeStyle=orthogonalEdgeStyle;rounded=0;orthogonalLoop=1;jettySize=auto;html=1;" parent="1" source="-TvTE6vRX-gle3-zoLTQ-82" target="-TvTE6vRX-gle3-zoLTQ-86" edge="1">
          <mxGeometry relative="1" as="geometry" />
        </mxCell>
        <mxCell id="-TvTE6vRX-gle3-zoLTQ-82" value="tlb_invalidate&lt;div style=&quot;font-size: 14px;&quot;&gt;in&lt;/div&gt;&lt;div style=&quot;font-size: 14px;&quot;&gt;kern/tlbex.c&lt;/div&gt;" style="rounded=1;whiteSpace=wrap;html=1;fontFamily=Lucida Console;fontSize=14;fontStyle=1" parent="1" vertex="1">
          <mxGeometry x="440" y="730" width="120" height="60" as="geometry" />
        </mxCell>
        <mxCell id="-TvTE6vRX-gle3-zoLTQ-86" value="tlb_out&lt;div style=&quot;font-size: 14px;&quot;&gt;in&lt;/div&gt;&lt;div style=&quot;font-size: 14px;&quot;&gt;kern/tlb_asm.S&lt;/div&gt;" style="ellipse;whiteSpace=wrap;html=1;fontFamily=Lucida Console;fontSize=14;fontStyle=1" parent="1" vertex="1">
          <mxGeometry x="424" y="910" width="150" height="80" as="geometry" />
        </mxCell>
        <mxCell id="-TvTE6vRX-gle3-zoLTQ-95" value="" style="edgeStyle=orthogonalEdgeStyle;rounded=0;orthogonalLoop=1;jettySize=auto;html=1;" parent="1" source="-TvTE6vRX-gle3-zoLTQ-92" target="-TvTE6vRX-gle3-zoLTQ-94" edge="1">
          <mxGeometry relative="1" as="geometry" />
        </mxCell>
        <mxCell id="-TvTE6vRX-gle3-zoLTQ-92" value="ENV_CREATE_PRIORITY&lt;div style=&quot;font-size: 14px;&quot;&gt;in&lt;/div&gt;&lt;div style=&quot;font-size: 14px;&quot;&gt;include/env.h&lt;/div&gt;" style="rounded=1;whiteSpace=wrap;html=1;fontSize=14;fontStyle=1;fontFamily=Lucida Console;" parent="1" vertex="1">
          <mxGeometry x="590" y="180" width="180" height="60" as="geometry" />
        </mxCell>
        <mxCell id="-TvTE6vRX-gle3-zoLTQ-97" value="" style="edgeStyle=orthogonalEdgeStyle;rounded=0;orthogonalLoop=1;jettySize=auto;html=1;" parent="1" source="-TvTE6vRX-gle3-zoLTQ-94" target="-TvTE6vRX-gle3-zoLTQ-96" edge="1">
          <mxGeometry relative="1" as="geometry" />
        </mxCell>
        <mxCell id="-TvTE6vRX-gle3-zoLTQ-110" style="edgeStyle=orthogonalEdgeStyle;rounded=0;orthogonalLoop=1;jettySize=auto;html=1;exitX=1;exitY=0.75;exitDx=0;exitDy=0;entryX=0;entryY=0.5;entryDx=0;entryDy=0;" parent="1" source="-TvTE6vRX-gle3-zoLTQ-94" target="-TvTE6vRX-gle3-zoLTQ-109" edge="1">
          <mxGeometry relative="1" as="geometry">
            <Array as="points">
              <mxPoint x="790" y="125" />
              <mxPoint x="790" y="310" />
            </Array>
          </mxGeometry>
        </mxCell>
        <mxCell id="-TvTE6vRX-gle3-zoLTQ-94" value="env_create&lt;div style=&quot;font-size: 14px;&quot;&gt;in&lt;/div&gt;&lt;div style=&quot;font-size: 14px;&quot;&gt;kern/env.c&lt;/div&gt;" style="rounded=1;whiteSpace=wrap;html=1;fontSize=14;fontFamily=Lucida Console;fontStyle=1" parent="1" vertex="1">
          <mxGeometry x="620" y="80" width="120" height="60" as="geometry" />
        </mxCell>
        <mxCell id="-TvTE6vRX-gle3-zoLTQ-99" value="" style="edgeStyle=orthogonalEdgeStyle;rounded=0;orthogonalLoop=1;jettySize=auto;html=1;" parent="1" source="-TvTE6vRX-gle3-zoLTQ-96" target="-TvTE6vRX-gle3-zoLTQ-98" edge="1">
          <mxGeometry relative="1" as="geometry" />
        </mxCell>
        <mxCell id="-TvTE6vRX-gle3-zoLTQ-106" value="" style="edgeStyle=orthogonalEdgeStyle;rounded=0;orthogonalLoop=1;jettySize=auto;html=1;" parent="1" source="-TvTE6vRX-gle3-zoLTQ-96" target="-TvTE6vRX-gle3-zoLTQ-104" edge="1">
          <mxGeometry relative="1" as="geometry" />
        </mxCell>
        <mxCell id="-TvTE6vRX-gle3-zoLTQ-108" style="edgeStyle=orthogonalEdgeStyle;rounded=0;orthogonalLoop=1;jettySize=auto;html=1;exitX=1;exitY=0.75;exitDx=0;exitDy=0;entryX=0;entryY=0.5;entryDx=0;entryDy=0;" parent="1" source="-TvTE6vRX-gle3-zoLTQ-96" target="-TvTE6vRX-gle3-zoLTQ-107" edge="1">
          <mxGeometry relative="1" as="geometry" />
        </mxCell>
        <mxCell id="-TvTE6vRX-gle3-zoLTQ-96" value="env_alloc&lt;div style=&quot;font-size: 14px;&quot;&gt;in&lt;/div&gt;&lt;div style=&quot;font-size: 14px;&quot;&gt;kern/env.c&lt;/div&gt;" style="rounded=1;whiteSpace=wrap;html=1;fontFamily=Lucida Console;fontSize=14;fontStyle=1" parent="1" vertex="1">
          <mxGeometry x="880" y="80" width="120" height="60" as="geometry" />
        </mxCell>
        <mxCell id="-TvTE6vRX-gle3-zoLTQ-101" style="edgeStyle=orthogonalEdgeStyle;rounded=0;orthogonalLoop=1;jettySize=auto;html=1;entryX=1;entryY=0.25;entryDx=0;entryDy=0;" parent="1" source="-TvTE6vRX-gle3-zoLTQ-98" target="-TvTE6vRX-gle3-zoLTQ-49" edge="1">
          <mxGeometry relative="1" as="geometry" />
        </mxCell>
        <mxCell id="-TvTE6vRX-gle3-zoLTQ-102" style="edgeStyle=orthogonalEdgeStyle;rounded=0;orthogonalLoop=1;jettySize=auto;html=1;exitX=0;exitY=0.75;exitDx=0;exitDy=0;entryX=1;entryY=0.75;entryDx=0;entryDy=0;" parent="1" source="-TvTE6vRX-gle3-zoLTQ-98" target="-TvTE6vRX-gle3-zoLTQ-51" edge="1">
          <mxGeometry relative="1" as="geometry">
            <Array as="points">
              <mxPoint x="860" y="225" />
              <mxPoint x="860" y="755" />
            </Array>
          </mxGeometry>
        </mxCell>
        <mxCell id="-TvTE6vRX-gle3-zoLTQ-98" value="env_setup_vm&lt;div style=&quot;font-size: 14px;&quot;&gt;in&lt;/div&gt;&lt;div style=&quot;font-size: 14px;&quot;&gt;kern/env.c&lt;/div&gt;" style="rounded=1;whiteSpace=wrap;html=1;fontSize=14;fontFamily=Lucida Console;fontStyle=1" parent="1" vertex="1">
          <mxGeometry x="880" y="180" width="120" height="60" as="geometry" />
        </mxCell>
        <mxCell id="-TvTE6vRX-gle3-zoLTQ-104" value="mkenvid&lt;div style=&quot;font-size: 14px;&quot;&gt;in&lt;/div&gt;&lt;div style=&quot;font-size: 14px;&quot;&gt;kern/env.c&lt;/div&gt;" style="ellipse;whiteSpace=wrap;html=1;fontFamily=Lucida Console;fontSize=14;fontStyle=1" parent="1" vertex="1">
          <mxGeometry x="1080" y="70" width="120" height="80" as="geometry" />
        </mxCell>
        <mxCell id="-TvTE6vRX-gle3-zoLTQ-107" value="asid_alloc&lt;div style=&quot;font-size: 14px;&quot;&gt;in&lt;/div&gt;&lt;div style=&quot;font-size: 14px;&quot;&gt;kern/env.c&lt;/div&gt;" style="ellipse;whiteSpace=wrap;html=1;fontSize=14;fontFamily=Lucida Console;fontStyle=1" parent="1" vertex="1">
          <mxGeometry x="1080" y="170" width="120" height="80" as="geometry" />
        </mxCell>
        <mxCell id="-TvTE6vRX-gle3-zoLTQ-112" value="" style="edgeStyle=orthogonalEdgeStyle;rounded=0;orthogonalLoop=1;jettySize=auto;html=1;" parent="1" source="-TvTE6vRX-gle3-zoLTQ-109" target="-TvTE6vRX-gle3-zoLTQ-111" edge="1">
          <mxGeometry relative="1" as="geometry" />
        </mxCell>
        <mxCell id="-TvTE6vRX-gle3-zoLTQ-114" value="" style="edgeStyle=orthogonalEdgeStyle;rounded=0;orthogonalLoop=1;jettySize=auto;html=1;" parent="1" source="-TvTE6vRX-gle3-zoLTQ-109" target="-TvTE6vRX-gle3-zoLTQ-113" edge="1">
          <mxGeometry relative="1" as="geometry" />
        </mxCell>
        <mxCell id="-TvTE6vRX-gle3-zoLTQ-117" style="edgeStyle=orthogonalEdgeStyle;rounded=0;orthogonalLoop=1;jettySize=auto;html=1;exitX=1;exitY=0.75;exitDx=0;exitDy=0;entryX=0;entryY=0.25;entryDx=0;entryDy=0;" parent="1" source="-TvTE6vRX-gle3-zoLTQ-109" target="-TvTE6vRX-gle3-zoLTQ-115" edge="1">
          <mxGeometry relative="1" as="geometry" />
        </mxCell>
        <mxCell id="-TvTE6vRX-gle3-zoLTQ-109" value="load_icode&lt;div style=&quot;font-size: 14px;&quot;&gt;in&lt;/div&gt;&lt;div style=&quot;font-size: 14px;&quot;&gt;kern/env.c&lt;/div&gt;" style="rounded=1;whiteSpace=wrap;html=1;fontSize=14;fontFamily=Lucida Console;fontStyle=1" parent="1" vertex="1">
          <mxGeometry x="880" y="280" width="120" height="60" as="geometry" />
        </mxCell>
        <mxCell id="-TvTE6vRX-gle3-zoLTQ-111" value="elf_from&lt;div style=&quot;font-size: 14px;&quot;&gt;in&lt;/div&gt;&lt;div style=&quot;font-size: 14px;&quot;&gt;lib/elf_loader.c&lt;/div&gt;" style="ellipse;whiteSpace=wrap;html=1;fontSize=14;fontFamily=Lucida Console;fontStyle=1" parent="1" vertex="1">
          <mxGeometry x="1050" y="270" width="180" height="80" as="geometry" />
        </mxCell>
        <mxCell id="-TvTE6vRX-gle3-zoLTQ-116" value="" style="edgeStyle=orthogonalEdgeStyle;rounded=0;orthogonalLoop=1;jettySize=auto;html=1;" parent="1" source="-TvTE6vRX-gle3-zoLTQ-113" target="-TvTE6vRX-gle3-zoLTQ-115" edge="1">
          <mxGeometry relative="1" as="geometry" />
        </mxCell>
        <mxCell id="-TvTE6vRX-gle3-zoLTQ-113" value="elf_load_seg&lt;div style=&quot;font-size: 14px;&quot;&gt;in&lt;/div&gt;&lt;div style=&quot;font-size: 14px;&quot;&gt;lib/elf_loader.c&lt;/div&gt;" style="rounded=1;whiteSpace=wrap;html=1;fontFamily=Lucida Console;fontSize=14;fontStyle=1" parent="1" vertex="1">
          <mxGeometry x="865" y="390" width="150" height="60" as="geometry" />
        </mxCell>
        <mxCell id="-TvTE6vRX-gle3-zoLTQ-118" style="edgeStyle=orthogonalEdgeStyle;rounded=0;orthogonalLoop=1;jettySize=auto;html=1;exitX=0.25;exitY=1;exitDx=0;exitDy=0;entryX=1;entryY=0.5;entryDx=0;entryDy=0;" parent="1" source="-TvTE6vRX-gle3-zoLTQ-115" target="-TvTE6vRX-gle3-zoLTQ-49" edge="1">
          <mxGeometry relative="1" as="geometry" />
        </mxCell>
        <mxCell id="-TvTE6vRX-gle3-zoLTQ-119" style="edgeStyle=orthogonalEdgeStyle;rounded=0;orthogonalLoop=1;jettySize=auto;html=1;exitX=0.5;exitY=1;exitDx=0;exitDy=0;entryX=1;entryY=0.25;entryDx=0;entryDy=0;" parent="1" source="-TvTE6vRX-gle3-zoLTQ-115" target="-TvTE6vRX-gle3-zoLTQ-51" edge="1">
          <mxGeometry relative="1" as="geometry" />
        </mxCell>
        <mxCell id="-TvTE6vRX-gle3-zoLTQ-120" style="edgeStyle=orthogonalEdgeStyle;rounded=0;orthogonalLoop=1;jettySize=auto;html=1;exitX=0.75;exitY=1;exitDx=0;exitDy=0;entryX=0.5;entryY=0;entryDx=0;entryDy=0;" parent="1" source="-TvTE6vRX-gle3-zoLTQ-115" target="-TvTE6vRX-gle3-zoLTQ-61" edge="1">
          <mxGeometry relative="1" as="geometry">
            <Array as="points">
              <mxPoint x="1183" y="580" />
              <mxPoint x="290" y="580" />
            </Array>
          </mxGeometry>
        </mxCell>
        <mxCell id="-TvTE6vRX-gle3-zoLTQ-115" value="load_icode_mapper&lt;div style=&quot;font-size: 14px;&quot;&gt;in&lt;/div&gt;&lt;div style=&quot;font-size: 14px;&quot;&gt;kern/env.c&lt;/div&gt;" style="rounded=1;whiteSpace=wrap;html=1;fontFamily=Lucida Console;fontSize=14;fontStyle=1" parent="1" vertex="1">
          <mxGeometry x="1055" y="390" width="170" height="60" as="geometry" />
        </mxCell>
        <mxCell id="-TvTE6vRX-gle3-zoLTQ-126" value="" style="edgeStyle=orthogonalEdgeStyle;rounded=0;orthogonalLoop=1;jettySize=auto;html=1;" parent="1" source="-TvTE6vRX-gle3-zoLTQ-121" target="-TvTE6vRX-gle3-zoLTQ-125" edge="1">
          <mxGeometry relative="1" as="geometry" />
        </mxCell>
        <mxCell id="-TvTE6vRX-gle3-zoLTQ-121" value="schedule&lt;div style=&quot;font-size: 14px;&quot;&gt;in&lt;/div&gt;&lt;div style=&quot;font-size: 14px;&quot;&gt;kern/sched.c&lt;/div&gt;" style="rounded=1;whiteSpace=wrap;html=1;fontSize=14;fontFamily=Lucida Console;fontStyle=1" parent="1" vertex="1">
          <mxGeometry x="1330" y="80" width="120" height="60" as="geometry" />
        </mxCell>
        <mxCell id="-TvTE6vRX-gle3-zoLTQ-128" value="" style="edgeStyle=orthogonalEdgeStyle;rounded=0;orthogonalLoop=1;jettySize=auto;html=1;" parent="1" source="-TvTE6vRX-gle3-zoLTQ-125" target="-TvTE6vRX-gle3-zoLTQ-127" edge="1">
          <mxGeometry relative="1" as="geometry" />
        </mxCell>
        <mxCell id="-TvTE6vRX-gle3-zoLTQ-125" value="env_run&lt;div style=&quot;font-size: 14px;&quot;&gt;in&lt;/div&gt;&lt;div style=&quot;font-size: 14px;&quot;&gt;kern/env.c&lt;/div&gt;" style="rounded=1;whiteSpace=wrap;html=1;fontSize=14;fontFamily=Lucida Console;fontStyle=1" parent="1" vertex="1">
          <mxGeometry x="1330" y="180" width="120" height="60" as="geometry" />
        </mxCell>
        <mxCell id="-TvTE6vRX-gle3-zoLTQ-130" value="" style="edgeStyle=orthogonalEdgeStyle;rounded=0;orthogonalLoop=1;jettySize=auto;html=1;" parent="1" source="-TvTE6vRX-gle3-zoLTQ-127" edge="1">
          <mxGeometry relative="1" as="geometry">
            <mxPoint x="1390" y="390" as="targetPoint" />
          </mxGeometry>
        </mxCell>
        <mxCell id="-TvTE6vRX-gle3-zoLTQ-127" value="env_pop_tf&lt;div style=&quot;font-size: 14px;&quot;&gt;in&lt;/div&gt;&lt;div style=&quot;font-size: 14px;&quot;&gt;kern/env_asm.S&lt;/div&gt;" style="rounded=1;whiteSpace=wrap;html=1;fontFamily=Lucida Console;fontSize=14;fontStyle=1" parent="1" vertex="1">
          <mxGeometry x="1320" y="280" width="140" height="60" as="geometry" />
        </mxCell>
        <mxCell id="-TvTE6vRX-gle3-zoLTQ-131" value="&lt;span style=&quot;font-family: &amp;quot;Lucida Console&amp;quot;; font-size: 14px; font-weight: 700;&quot;&gt;ret_from_exception&lt;/span&gt;&lt;div style=&quot;font-family: &amp;quot;Lucida Console&amp;quot;; font-size: 14px; font-weight: 700;&quot;&gt;in&lt;/div&gt;&lt;div style=&quot;font-family: &amp;quot;Lucida Console&amp;quot;; font-size: 14px; font-weight: 700;&quot;&gt;kern/genex.S&lt;/div&gt;" style="ellipse;whiteSpace=wrap;html=1;" parent="1" vertex="1">
          <mxGeometry x="1285" y="390" width="210" height="80" as="geometry" />
        </mxCell>
        <mxCell id="-TvTE6vRX-gle3-zoLTQ-133" value="asid_free&lt;div style=&quot;font-size: 14px;&quot;&gt;in&lt;/div&gt;&lt;div style=&quot;font-size: 14px;&quot;&gt;kern/env.c&lt;/div&gt;" style="ellipse;whiteSpace=wrap;html=1;fontFamily=Lucida Console;fontSize=14;fontStyle=1" parent="1" vertex="1">
          <mxGeometry x="1330" y="500" width="120" height="80" as="geometry" />
        </mxCell>
        <mxCell id="-TvTE6vRX-gle3-zoLTQ-134" value="&lt;div style=&quot;font-size: 14px;&quot;&gt;envid2env&lt;/div&gt;&lt;div style=&quot;font-size: 14px;&quot;&gt;in&lt;/div&gt;&lt;div style=&quot;font-size: 14px;&quot;&gt;kern/env.c&lt;/div&gt;" style="ellipse;whiteSpace=wrap;html=1;fontFamily=Lucida Console;fontSize=14;fontStyle=1" parent="1" vertex="1">
          <mxGeometry x="630" y="1610" width="120" height="80" as="geometry" />
        </mxCell>
        <mxCell id="-TvTE6vRX-gle3-zoLTQ-136" style="edgeStyle=orthogonalEdgeStyle;rounded=0;orthogonalLoop=1;jettySize=auto;html=1;entryX=0.75;entryY=1;entryDx=0;entryDy=0;" parent="1" source="-TvTE6vRX-gle3-zoLTQ-135" target="-TvTE6vRX-gle3-zoLTQ-67" edge="1">
          <mxGeometry relative="1" as="geometry">
            <Array as="points">
              <mxPoint x="1140" y="890" />
              <mxPoint x="370" y="890" />
              <mxPoint x="370" y="810" />
              <mxPoint x="320" y="810" />
            </Array>
          </mxGeometry>
        </mxCell>
        <mxCell id="-TvTE6vRX-gle3-zoLTQ-137" style="edgeStyle=orthogonalEdgeStyle;rounded=0;orthogonalLoop=1;jettySize=auto;html=1;exitX=0.75;exitY=1;exitDx=0;exitDy=0;entryX=0.5;entryY=1;entryDx=0;entryDy=0;" parent="1" source="-TvTE6vRX-gle3-zoLTQ-135" target="-TvTE6vRX-gle3-zoLTQ-76" edge="1">
          <mxGeometry relative="1" as="geometry">
            <Array as="points">
              <mxPoint x="1170" y="1000" />
              <mxPoint x="290" y="1000" />
            </Array>
          </mxGeometry>
        </mxCell>
        <mxCell id="-TvTE6vRX-gle3-zoLTQ-138" style="edgeStyle=orthogonalEdgeStyle;rounded=0;orthogonalLoop=1;jettySize=auto;html=1;exitX=1;exitY=1;exitDx=0;exitDy=0;entryX=1;entryY=0.5;entryDx=0;entryDy=0;" parent="1" source="-TvTE6vRX-gle3-zoLTQ-135" target="-TvTE6vRX-gle3-zoLTQ-69" edge="1">
          <mxGeometry relative="1" as="geometry" />
        </mxCell>
        <mxCell id="-TvTE6vRX-gle3-zoLTQ-139" style="edgeStyle=orthogonalEdgeStyle;rounded=0;orthogonalLoop=1;jettySize=auto;html=1;exitX=0.25;exitY=0;exitDx=0;exitDy=0;entryX=1;entryY=0.75;entryDx=0;entryDy=0;" parent="1" source="-TvTE6vRX-gle3-zoLTQ-135" target="-TvTE6vRX-gle3-zoLTQ-82" edge="1">
          <mxGeometry relative="1" as="geometry" />
        </mxCell>
        <mxCell id="-TvTE6vRX-gle3-zoLTQ-140" style="edgeStyle=orthogonalEdgeStyle;rounded=0;orthogonalLoop=1;jettySize=auto;html=1;exitX=0.75;exitY=0;exitDx=0;exitDy=0;entryX=0;entryY=0.5;entryDx=0;entryDy=0;" parent="1" source="-TvTE6vRX-gle3-zoLTQ-135" target="-TvTE6vRX-gle3-zoLTQ-133" edge="1">
          <mxGeometry relative="1" as="geometry">
            <Array as="points">
              <mxPoint x="1170" y="730" />
              <mxPoint x="1200" y="730" />
              <mxPoint x="1200" y="540" />
            </Array>
          </mxGeometry>
        </mxCell>
        <mxCell id="-TvTE6vRX-gle3-zoLTQ-135" value="env_free&lt;div style=&quot;font-size: 14px;&quot;&gt;in&lt;/div&gt;&lt;div style=&quot;font-size: 14px;&quot;&gt;kern/env.c&lt;/div&gt;" style="rounded=1;whiteSpace=wrap;html=1;fontSize=14;fontFamily=Lucida Console;fontStyle=1" parent="1" vertex="1">
          <mxGeometry x="1080" y="810" width="120" height="60" as="geometry" />
        </mxCell>
        <mxCell id="-TvTE6vRX-gle3-zoLTQ-142" style="edgeStyle=orthogonalEdgeStyle;rounded=0;orthogonalLoop=1;jettySize=auto;html=1;exitX=0;exitY=0.5;exitDx=0;exitDy=0;entryX=1;entryY=0.5;entryDx=0;entryDy=0;" parent="1" source="-TvTE6vRX-gle3-zoLTQ-141" target="-TvTE6vRX-gle3-zoLTQ-135" edge="1">
          <mxGeometry relative="1" as="geometry" />
        </mxCell>
        <mxCell id="-TvTE6vRX-gle3-zoLTQ-143" style="edgeStyle=orthogonalEdgeStyle;rounded=0;orthogonalLoop=1;jettySize=auto;html=1;exitX=1;exitY=0.5;exitDx=0;exitDy=0;entryX=1;entryY=0.5;entryDx=0;entryDy=0;" parent="1" source="-TvTE6vRX-gle3-zoLTQ-141" target="-TvTE6vRX-gle3-zoLTQ-121" edge="1">
          <mxGeometry relative="1" as="geometry">
            <Array as="points">
              <mxPoint x="1520" y="840" />
              <mxPoint x="1520" y="110" />
            </Array>
          </mxGeometry>
        </mxCell>
        <mxCell id="-TvTE6vRX-gle3-zoLTQ-141" value="env_destroy&lt;div style=&quot;font-size: 14px;&quot;&gt;in&lt;/div&gt;&lt;div style=&quot;font-size: 14px;&quot;&gt;kern/env.c&lt;/div&gt;" style="rounded=1;whiteSpace=wrap;html=1;fontSize=14;fontFamily=Lucida Console;fontStyle=1" parent="1" vertex="1">
          <mxGeometry x="1330" y="810" width="120" height="60" as="geometry" />
        </mxCell>
        <mxCell id="GS6HpVwLS2942WepslLu-35" style="edgeStyle=orthogonalEdgeStyle;rounded=0;orthogonalLoop=1;jettySize=auto;html=1;exitX=1;exitY=0.5;exitDx=0;exitDy=0;" parent="1" source="GS6HpVwLS2942WepslLu-1" edge="1">
          <mxGeometry relative="1" as="geometry">
            <mxPoint x="1220" y="1610" as="targetPoint" />
          </mxGeometry>
        </mxCell>
        <mxCell id="GS6HpVwLS2942WepslLu-54" value="" style="edgeStyle=orthogonalEdgeStyle;rounded=0;orthogonalLoop=1;jettySize=auto;html=1;dashed=1;strokeWidth=2;" parent="1" source="GS6HpVwLS2942WepslLu-1" target="GS6HpVwLS2942WepslLu-52" edge="1">
          <mxGeometry relative="1" as="geometry" />
        </mxCell>
        <mxCell id="GS6HpVwLS2942WepslLu-1" value="syscall_putchar&lt;div style=&quot;font-size: 14px;&quot;&gt;in&lt;/div&gt;&lt;div style=&quot;font-size: 14px;&quot;&gt;user/lib/syscall_lib.c&lt;/div&gt;" style="rounded=1;whiteSpace=wrap;html=1;fontFamily=Lucida Console;fontStyle=1;fontSize=14;" parent="1" vertex="1">
          <mxGeometry x="880" y="1220" width="200" height="60" as="geometry" />
        </mxCell>
        <mxCell id="GS6HpVwLS2942WepslLu-34" style="edgeStyle=orthogonalEdgeStyle;rounded=0;orthogonalLoop=1;jettySize=auto;html=1;exitX=1;exitY=0.5;exitDx=0;exitDy=0;" parent="1" source="GS6HpVwLS2942WepslLu-2" edge="1">
          <mxGeometry relative="1" as="geometry">
            <mxPoint x="1200" y="1610" as="targetPoint" />
          </mxGeometry>
        </mxCell>
        <mxCell id="GS6HpVwLS2942WepslLu-57" value="" style="edgeStyle=orthogonalEdgeStyle;rounded=0;orthogonalLoop=1;jettySize=auto;html=1;strokeWidth=2;dashed=1;" parent="1" source="GS6HpVwLS2942WepslLu-2" target="GS6HpVwLS2942WepslLu-56" edge="1">
          <mxGeometry relative="1" as="geometry" />
        </mxCell>
        <mxCell id="GS6HpVwLS2942WepslLu-2" value="syscall_print_cons&lt;div style=&quot;font-size: 14px;&quot;&gt;in&lt;/div&gt;&lt;div style=&quot;font-size: 14px;&quot;&gt;user/lib/syscall_lib.c&lt;/div&gt;" style="rounded=1;whiteSpace=wrap;html=1;fontFamily=Lucida Console;fontStyle=1;fontSize=14;" parent="1" vertex="1">
          <mxGeometry x="880" y="1320" width="200" height="60" as="geometry" />
        </mxCell>
        <mxCell id="GS6HpVwLS2942WepslLu-33" style="edgeStyle=orthogonalEdgeStyle;rounded=0;orthogonalLoop=1;jettySize=auto;html=1;exitX=1;exitY=0.5;exitDx=0;exitDy=0;" parent="1" source="GS6HpVwLS2942WepslLu-3" edge="1">
          <mxGeometry relative="1" as="geometry">
            <mxPoint x="1180" y="1610" as="targetPoint" />
          </mxGeometry>
        </mxCell>
        <mxCell id="GS6HpVwLS2942WepslLu-60" value="" style="edgeStyle=orthogonalEdgeStyle;rounded=0;orthogonalLoop=1;jettySize=auto;html=1;strokeWidth=2;dashed=1;" parent="1" source="GS6HpVwLS2942WepslLu-3" target="GS6HpVwLS2942WepslLu-59" edge="1">
          <mxGeometry relative="1" as="geometry" />
        </mxCell>
        <mxCell id="GS6HpVwLS2942WepslLu-3" value="syscall_getenvid&lt;div style=&quot;font-size: 14px;&quot;&gt;in&lt;/div&gt;&lt;div style=&quot;font-size: 14px;&quot;&gt;user/lib/syscall_lib.c&lt;/div&gt;" style="rounded=1;whiteSpace=wrap;html=1;fontFamily=Lucida Console;fontStyle=1;fontSize=14;" parent="1" vertex="1">
          <mxGeometry x="880" y="1420" width="200" height="60" as="geometry" />
        </mxCell>
        <mxCell id="GS6HpVwLS2942WepslLu-32" style="edgeStyle=orthogonalEdgeStyle;rounded=0;orthogonalLoop=1;jettySize=auto;html=1;exitX=1;exitY=0.5;exitDx=0;exitDy=0;" parent="1" source="GS6HpVwLS2942WepslLu-4" edge="1">
          <mxGeometry relative="1" as="geometry">
            <mxPoint x="1160" y="1610" as="targetPoint" />
          </mxGeometry>
        </mxCell>
        <mxCell id="GS6HpVwLS2942WepslLu-78" value="" style="edgeStyle=orthogonalEdgeStyle;rounded=0;orthogonalLoop=1;jettySize=auto;html=1;dashed=1;strokeWidth=2;" parent="1" source="GS6HpVwLS2942WepslLu-4" target="GS6HpVwLS2942WepslLu-61" edge="1">
          <mxGeometry relative="1" as="geometry" />
        </mxCell>
        <mxCell id="GS6HpVwLS2942WepslLu-4" value="syscall_yield&lt;div style=&quot;font-size: 14px;&quot;&gt;in&lt;/div&gt;&lt;div style=&quot;font-size: 14px;&quot;&gt;user/lib/syscall_lib.c&lt;/div&gt;" style="rounded=1;whiteSpace=wrap;html=1;fontFamily=Lucida Console;fontStyle=1;fontSize=14;" parent="1" vertex="1">
          <mxGeometry x="880" y="1520" width="200" height="60" as="geometry" />
        </mxCell>
        <mxCell id="GS6HpVwLS2942WepslLu-40" style="edgeStyle=orthogonalEdgeStyle;rounded=0;orthogonalLoop=1;jettySize=auto;html=1;exitX=1;exitY=0.5;exitDx=0;exitDy=0;" parent="1" source="GS6HpVwLS2942WepslLu-7" edge="1">
          <mxGeometry relative="1" as="geometry">
            <mxPoint x="1160" y="1690" as="targetPoint" />
          </mxGeometry>
        </mxCell>
        <mxCell id="GS6HpVwLS2942WepslLu-79" value="" style="edgeStyle=orthogonalEdgeStyle;rounded=0;orthogonalLoop=1;jettySize=auto;html=1;dashed=1;strokeWidth=2;" parent="1" source="GS6HpVwLS2942WepslLu-7" target="GS6HpVwLS2942WepslLu-64" edge="1">
          <mxGeometry relative="1" as="geometry" />
        </mxCell>
        <mxCell id="GS6HpVwLS2942WepslLu-7" value="syscall_env_destroy&lt;div style=&quot;font-size: 14px;&quot;&gt;in&lt;/div&gt;&lt;div style=&quot;font-size: 14px;&quot;&gt;user/lib/syscall_lib.c&lt;/div&gt;" style="rounded=1;whiteSpace=wrap;html=1;fontFamily=Lucida Console;fontStyle=1;fontSize=14;" parent="1" vertex="1">
          <mxGeometry x="880" y="1720" width="200" height="60" as="geometry" />
        </mxCell>
        <mxCell id="GS6HpVwLS2942WepslLu-41" style="edgeStyle=orthogonalEdgeStyle;rounded=0;orthogonalLoop=1;jettySize=auto;html=1;exitX=1;exitY=0.5;exitDx=0;exitDy=0;" parent="1" source="GS6HpVwLS2942WepslLu-8" edge="1">
          <mxGeometry relative="1" as="geometry">
            <mxPoint x="1180" y="1690" as="targetPoint" />
          </mxGeometry>
        </mxCell>
        <mxCell id="GS6HpVwLS2942WepslLu-80" value="" style="edgeStyle=orthogonalEdgeStyle;rounded=0;orthogonalLoop=1;jettySize=auto;html=1;dashed=1;strokeWidth=2;" parent="1" source="GS6HpVwLS2942WepslLu-8" target="GS6HpVwLS2942WepslLu-67" edge="1">
          <mxGeometry relative="1" as="geometry" />
        </mxCell>
        <mxCell id="GS6HpVwLS2942WepslLu-8" value="syscall_set_tlb_mod_entry&lt;div style=&quot;font-size: 14px;&quot;&gt;in&lt;/div&gt;&lt;div style=&quot;font-size: 14px;&quot;&gt;user/lib/syscall_lib.c&lt;/div&gt;" style="rounded=1;whiteSpace=wrap;html=1;fontFamily=Lucida Console;fontStyle=1;fontSize=14;" parent="1" vertex="1">
          <mxGeometry x="862.5" y="1820" width="235" height="60" as="geometry" />
        </mxCell>
        <mxCell id="GS6HpVwLS2942WepslLu-42" style="edgeStyle=orthogonalEdgeStyle;rounded=0;orthogonalLoop=1;jettySize=auto;html=1;exitX=1;exitY=0.5;exitDx=0;exitDy=0;" parent="1" source="GS6HpVwLS2942WepslLu-9" edge="1">
          <mxGeometry relative="1" as="geometry">
            <mxPoint x="1200" y="1690" as="targetPoint" />
          </mxGeometry>
        </mxCell>
        <mxCell id="GS6HpVwLS2942WepslLu-81" value="" style="edgeStyle=orthogonalEdgeStyle;rounded=0;orthogonalLoop=1;jettySize=auto;html=1;dashed=1;strokeWidth=2;" parent="1" source="GS6HpVwLS2942WepslLu-9" target="GS6HpVwLS2942WepslLu-72" edge="1">
          <mxGeometry relative="1" as="geometry" />
        </mxCell>
        <mxCell id="GS6HpVwLS2942WepslLu-9" value="syscall_mem_alloc&lt;div style=&quot;font-size: 14px;&quot;&gt;in&lt;/div&gt;&lt;div style=&quot;font-size: 14px;&quot;&gt;user/lib/syscall_lib.c&lt;/div&gt;" style="rounded=1;whiteSpace=wrap;html=1;fontFamily=Lucida Console;fontStyle=1;fontSize=14;" parent="1" vertex="1">
          <mxGeometry x="880" y="1920" width="200" height="60" as="geometry" />
        </mxCell>
        <mxCell id="GS6HpVwLS2942WepslLu-43" style="edgeStyle=orthogonalEdgeStyle;rounded=0;orthogonalLoop=1;jettySize=auto;html=1;exitX=1;exitY=0.5;exitDx=0;exitDy=0;" parent="1" source="GS6HpVwLS2942WepslLu-10" edge="1">
          <mxGeometry relative="1" as="geometry">
            <mxPoint x="1220" y="1690" as="targetPoint" />
          </mxGeometry>
        </mxCell>
        <mxCell id="GS6HpVwLS2942WepslLu-10" value="syscall_mem_map&lt;div style=&quot;font-size: 14px;&quot;&gt;in&lt;/div&gt;&lt;div style=&quot;font-size: 14px;&quot;&gt;user/lib/syscall_lib.c&lt;/div&gt;" style="rounded=1;whiteSpace=wrap;html=1;fontFamily=Lucida Console;fontStyle=1;fontSize=14;" parent="1" vertex="1">
          <mxGeometry x="880" y="2020" width="200" height="60" as="geometry" />
        </mxCell>
        <mxCell id="GS6HpVwLS2942WepslLu-47" style="edgeStyle=orthogonalEdgeStyle;rounded=0;orthogonalLoop=1;jettySize=auto;html=1;exitX=0;exitY=0.5;exitDx=0;exitDy=0;" parent="1" source="GS6HpVwLS2942WepslLu-11" edge="1">
          <mxGeometry relative="1" as="geometry">
            <mxPoint x="1260" y="1690" as="targetPoint" />
          </mxGeometry>
        </mxCell>
        <mxCell id="lfMkDHr9ZB22BNDIEuPk-10" style="edgeStyle=orthogonalEdgeStyle;rounded=0;orthogonalLoop=1;jettySize=auto;html=1;exitX=1;exitY=0.5;exitDx=0;exitDy=0;entryX=0;entryY=0.5;entryDx=0;entryDy=0;strokeWidth=2;dashed=1;" edge="1" parent="1" source="GS6HpVwLS2942WepslLu-11" target="lfMkDHr9ZB22BNDIEuPk-9">
          <mxGeometry relative="1" as="geometry" />
        </mxCell>
        <mxCell id="GS6HpVwLS2942WepslLu-11" value="syscall_mem_unmap&lt;div style=&quot;font-size: 14px;&quot;&gt;in&lt;/div&gt;&lt;div style=&quot;font-size: 14px;&quot;&gt;user/lib/syscall_lib.c&lt;/div&gt;" style="rounded=1;whiteSpace=wrap;html=1;fontFamily=Lucida Console;fontStyle=1;fontSize=14;" parent="1" vertex="1">
          <mxGeometry x="1400" y="2020" width="200" height="60" as="geometry" />
        </mxCell>
        <mxCell id="GS6HpVwLS2942WepslLu-46" style="edgeStyle=orthogonalEdgeStyle;rounded=0;orthogonalLoop=1;jettySize=auto;html=1;exitX=0;exitY=0.5;exitDx=0;exitDy=0;" parent="1" source="GS6HpVwLS2942WepslLu-12" edge="1">
          <mxGeometry relative="1" as="geometry">
            <mxPoint x="1280" y="1690" as="targetPoint" />
          </mxGeometry>
        </mxCell>
        <mxCell id="GS6HpVwLS2942WepslLu-12" value="syscall_set_env_status&lt;div style=&quot;font-size: 14px;&quot;&gt;in&lt;/div&gt;&lt;div style=&quot;font-size: 14px;&quot;&gt;user/lib/syscall_lib.c&lt;/div&gt;" style="rounded=1;whiteSpace=wrap;html=1;fontFamily=Lucida Console;fontStyle=1;fontSize=14;" parent="1" vertex="1">
          <mxGeometry x="1400" y="1920" width="200" height="60" as="geometry" />
        </mxCell>
        <mxCell id="GS6HpVwLS2942WepslLu-39" style="edgeStyle=orthogonalEdgeStyle;rounded=0;orthogonalLoop=1;jettySize=auto;html=1;exitX=0;exitY=0.5;exitDx=0;exitDy=0;" parent="1" source="GS6HpVwLS2942WepslLu-13" edge="1">
          <mxGeometry relative="1" as="geometry">
            <mxPoint x="1260" y="1610" as="targetPoint" />
          </mxGeometry>
        </mxCell>
        <mxCell id="lfMkDHr9ZB22BNDIEuPk-17" style="edgeStyle=orthogonalEdgeStyle;rounded=0;orthogonalLoop=1;jettySize=auto;html=1;exitX=1;exitY=0.5;exitDx=0;exitDy=0;entryX=0;entryY=0.5;entryDx=0;entryDy=0;strokeWidth=2;dashed=1;" edge="1" parent="1" source="GS6HpVwLS2942WepslLu-13" target="lfMkDHr9ZB22BNDIEuPk-8">
          <mxGeometry relative="1" as="geometry" />
        </mxCell>
        <mxCell id="GS6HpVwLS2942WepslLu-13" value="syscall_set_trapframe&lt;div style=&quot;font-size: 14px;&quot;&gt;in&lt;/div&gt;&lt;div style=&quot;font-size: 14px;&quot;&gt;user/lib/syscall_lib.c&lt;/div&gt;" style="rounded=1;whiteSpace=wrap;html=1;fontFamily=Lucida Console;fontStyle=1;fontSize=14;" parent="1" vertex="1">
          <mxGeometry x="1400" y="1220" width="200" height="60" as="geometry" />
        </mxCell>
        <mxCell id="GS6HpVwLS2942WepslLu-38" style="edgeStyle=orthogonalEdgeStyle;rounded=0;orthogonalLoop=1;jettySize=auto;html=1;exitX=0;exitY=0.5;exitDx=0;exitDy=0;" parent="1" source="GS6HpVwLS2942WepslLu-14" edge="1">
          <mxGeometry relative="1" as="geometry">
            <mxPoint x="1280" y="1610" as="targetPoint" />
          </mxGeometry>
        </mxCell>
        <mxCell id="lfMkDHr9ZB22BNDIEuPk-21" style="edgeStyle=orthogonalEdgeStyle;rounded=0;orthogonalLoop=1;jettySize=auto;html=1;exitX=1;exitY=0.5;exitDx=0;exitDy=0;entryX=0;entryY=0.5;entryDx=0;entryDy=0;dashed=1;strokeWidth=2;" edge="1" parent="1" source="GS6HpVwLS2942WepslLu-14" target="lfMkDHr9ZB22BNDIEuPk-20">
          <mxGeometry relative="1" as="geometry" />
        </mxCell>
        <mxCell id="GS6HpVwLS2942WepslLu-14" value="syscall_panic&lt;div style=&quot;font-size: 14px;&quot;&gt;in&lt;/div&gt;&lt;div style=&quot;font-size: 14px;&quot;&gt;user/lib/syscall_lib.c&lt;/div&gt;" style="rounded=1;whiteSpace=wrap;html=1;fontFamily=Lucida Console;fontStyle=1;fontSize=14;" parent="1" vertex="1">
          <mxGeometry x="1400" y="1320" width="200" height="60" as="geometry" />
        </mxCell>
        <mxCell id="GS6HpVwLS2942WepslLu-37" style="edgeStyle=orthogonalEdgeStyle;rounded=0;orthogonalLoop=1;jettySize=auto;html=1;" parent="1" source="GS6HpVwLS2942WepslLu-15" edge="1">
          <mxGeometry relative="1" as="geometry">
            <mxPoint x="1300" y="1610" as="targetPoint" />
          </mxGeometry>
        </mxCell>
        <mxCell id="GS6HpVwLS2942WepslLu-15" value="syscall_ipc_try_send&lt;div style=&quot;font-size: 14px;&quot;&gt;in&lt;/div&gt;&lt;div style=&quot;font-size: 14px;&quot;&gt;user/lib/syscall_lib.c&lt;/div&gt;" style="rounded=1;whiteSpace=wrap;html=1;fontFamily=Lucida Console;fontStyle=1;fontSize=14;" parent="1" vertex="1">
          <mxGeometry x="1400" y="1420" width="200" height="60" as="geometry" />
        </mxCell>
        <mxCell id="GS6HpVwLS2942WepslLu-36" style="edgeStyle=orthogonalEdgeStyle;rounded=0;orthogonalLoop=1;jettySize=auto;html=1;exitX=0;exitY=0.5;exitDx=0;exitDy=0;" parent="1" source="GS6HpVwLS2942WepslLu-16" edge="1">
          <mxGeometry relative="1" as="geometry">
            <mxPoint x="1320" y="1610" as="targetPoint" />
          </mxGeometry>
        </mxCell>
        <mxCell id="lfMkDHr9ZB22BNDIEuPk-23" style="edgeStyle=orthogonalEdgeStyle;rounded=0;orthogonalLoop=1;jettySize=auto;html=1;entryX=0;entryY=0.5;entryDx=0;entryDy=0;dashed=1;strokeWidth=2;" edge="1" parent="1" source="GS6HpVwLS2942WepslLu-16" target="lfMkDHr9ZB22BNDIEuPk-22">
          <mxGeometry relative="1" as="geometry" />
        </mxCell>
        <mxCell id="GS6HpVwLS2942WepslLu-16" value="syscall_ipc_recv&lt;div style=&quot;font-size: 14px;&quot;&gt;in&lt;/div&gt;&lt;div style=&quot;font-size: 14px;&quot;&gt;user/lib/syscall_lib.c&lt;/div&gt;" style="rounded=1;whiteSpace=wrap;html=1;fontFamily=Lucida Console;fontStyle=1;fontSize=14;" parent="1" vertex="1">
          <mxGeometry x="1400" y="1520" width="200" height="60" as="geometry" />
        </mxCell>
        <mxCell id="GS6HpVwLS2942WepslLu-28" style="edgeStyle=orthogonalEdgeStyle;rounded=0;orthogonalLoop=1;jettySize=auto;html=1;exitX=0;exitY=0.5;exitDx=0;exitDy=0;entryX=1;entryY=0.5;entryDx=0;entryDy=0;" parent="1" source="GS6HpVwLS2942WepslLu-17" target="GS6HpVwLS2942WepslLu-20" edge="1">
          <mxGeometry relative="1" as="geometry" />
        </mxCell>
        <mxCell id="lfMkDHr9ZB22BNDIEuPk-32" style="edgeStyle=orthogonalEdgeStyle;rounded=0;orthogonalLoop=1;jettySize=auto;html=1;exitX=1;exitY=0.5;exitDx=0;exitDy=0;entryX=0;entryY=0.5;entryDx=0;entryDy=0;dashed=1;strokeWidth=2;" edge="1" parent="1" source="GS6HpVwLS2942WepslLu-17" target="lfMkDHr9ZB22BNDIEuPk-31">
          <mxGeometry relative="1" as="geometry" />
        </mxCell>
        <mxCell id="GS6HpVwLS2942WepslLu-17" value="syscall_cgetc&lt;div style=&quot;font-size: 14px;&quot;&gt;in&lt;/div&gt;&lt;div style=&quot;font-size: 14px;&quot;&gt;user/lib/syscall_lib.c&lt;/div&gt;" style="rounded=1;whiteSpace=wrap;html=1;fontFamily=Lucida Console;fontStyle=1;fontSize=14;" parent="1" vertex="1">
          <mxGeometry x="1400" y="1620" width="200" height="60" as="geometry" />
        </mxCell>
        <mxCell id="GS6HpVwLS2942WepslLu-44" style="edgeStyle=orthogonalEdgeStyle;rounded=0;orthogonalLoop=1;jettySize=auto;html=1;exitX=0;exitY=0.5;exitDx=0;exitDy=0;" parent="1" source="GS6HpVwLS2942WepslLu-18" edge="1">
          <mxGeometry relative="1" as="geometry">
            <mxPoint x="1320" y="1690" as="targetPoint" />
          </mxGeometry>
        </mxCell>
        <mxCell id="lfMkDHr9ZB22BNDIEuPk-36" style="edgeStyle=orthogonalEdgeStyle;rounded=0;orthogonalLoop=1;jettySize=auto;html=1;exitX=1;exitY=0.5;exitDx=0;exitDy=0;entryX=0;entryY=0.5;entryDx=0;entryDy=0;dashed=1;strokeWidth=2;" edge="1" parent="1" source="GS6HpVwLS2942WepslLu-18" target="lfMkDHr9ZB22BNDIEuPk-35">
          <mxGeometry relative="1" as="geometry" />
        </mxCell>
        <mxCell id="GS6HpVwLS2942WepslLu-18" value="syscall_write_dev&lt;div style=&quot;font-size: 14px;&quot;&gt;in&lt;/div&gt;&lt;div style=&quot;font-size: 14px;&quot;&gt;user/lib/syscall_lib.c&lt;/div&gt;" style="rounded=1;whiteSpace=wrap;html=1;fontFamily=Lucida Console;fontStyle=1;fontSize=14;" parent="1" vertex="1">
          <mxGeometry x="1400" y="1720" width="200" height="60" as="geometry" />
        </mxCell>
        <mxCell id="GS6HpVwLS2942WepslLu-45" style="edgeStyle=orthogonalEdgeStyle;rounded=0;orthogonalLoop=1;jettySize=auto;html=1;exitX=0;exitY=0.5;exitDx=0;exitDy=0;" parent="1" source="GS6HpVwLS2942WepslLu-19" edge="1">
          <mxGeometry relative="1" as="geometry">
            <mxPoint x="1300" y="1690" as="targetPoint" />
          </mxGeometry>
        </mxCell>
        <mxCell id="lfMkDHr9ZB22BNDIEuPk-38" style="edgeStyle=orthogonalEdgeStyle;rounded=0;orthogonalLoop=1;jettySize=auto;html=1;exitX=1;exitY=0.5;exitDx=0;exitDy=0;dashed=1;strokeWidth=2;" edge="1" parent="1" source="GS6HpVwLS2942WepslLu-19" target="lfMkDHr9ZB22BNDIEuPk-37">
          <mxGeometry relative="1" as="geometry" />
        </mxCell>
        <mxCell id="GS6HpVwLS2942WepslLu-19" value="syscall_read_dev&lt;div style=&quot;font-size: 14px;&quot;&gt;in&lt;/div&gt;&lt;div style=&quot;font-size: 14px;&quot;&gt;user/lib/syscall_lib.c&lt;/div&gt;" style="rounded=1;whiteSpace=wrap;html=1;fontFamily=Lucida Console;fontStyle=1;fontSize=14;" parent="1" vertex="1">
          <mxGeometry x="1400" y="1820" width="200" height="60" as="geometry" />
        </mxCell>
        <mxCell id="GS6HpVwLS2942WepslLu-49" style="edgeStyle=orthogonalEdgeStyle;rounded=0;orthogonalLoop=1;jettySize=auto;html=1;exitX=0.5;exitY=0;exitDx=0;exitDy=0;entryX=0.5;entryY=1;entryDx=0;entryDy=0;strokeWidth=3;" parent="1" source="GS6HpVwLS2942WepslLu-20" target="GS6HpVwLS2942WepslLu-48" edge="1">
          <mxGeometry relative="1" as="geometry" />
        </mxCell>
        <mxCell id="GS6HpVwLS2942WepslLu-20" value="msyscall&lt;div style=&quot;font-size: 14px;&quot;&gt;in&lt;/div&gt;&lt;div style=&quot;font-size: 14px;&quot;&gt;user/lib/syscall_wrap.S&lt;/div&gt;" style="rounded=1;whiteSpace=wrap;html=1;fontFamily=Lucida Console;fontSize=14;fontStyle=1" parent="1" vertex="1">
          <mxGeometry x="1131" y="1610" width="220" height="80" as="geometry" />
        </mxCell>
        <mxCell id="GS6HpVwLS2942WepslLu-51" value="" style="edgeStyle=orthogonalEdgeStyle;rounded=0;orthogonalLoop=1;jettySize=auto;html=1;strokeWidth=3;" parent="1" source="GS6HpVwLS2942WepslLu-48" target="GS6HpVwLS2942WepslLu-50" edge="1">
          <mxGeometry relative="1" as="geometry" />
        </mxCell>
        <mxCell id="lfMkDHr9ZB22BNDIEuPk-39" style="edgeStyle=orthogonalEdgeStyle;rounded=0;orthogonalLoop=1;jettySize=auto;html=1;exitX=1;exitY=0.5;exitDx=0;exitDy=0;entryX=0.5;entryY=1;entryDx=0;entryDy=0;" edge="1" parent="1" source="GS6HpVwLS2942WepslLu-48" target="-TvTE6vRX-gle3-zoLTQ-131">
          <mxGeometry relative="1" as="geometry">
            <Array as="points">
              <mxPoint x="1480" y="1120" />
              <mxPoint x="1480" y="490" />
              <mxPoint x="1390" y="490" />
            </Array>
          </mxGeometry>
        </mxCell>
        <mxCell id="GS6HpVwLS2942WepslLu-48" value="handle_sys&lt;div style=&quot;font-size: 14px;&quot;&gt;in&lt;/div&gt;&lt;div style=&quot;font-size: 14px;&quot;&gt;kern/genex.S&lt;/div&gt;" style="rounded=1;whiteSpace=wrap;html=1;fontFamily=Lucida Console;fontSize=14;fontStyle=1" parent="1" vertex="1">
          <mxGeometry x="1181" y="1090" width="120" height="60" as="geometry" />
        </mxCell>
        <mxCell id="GS6HpVwLS2942WepslLu-50" value="do_syscall&lt;div style=&quot;font-size: 14px;&quot;&gt;in&lt;/div&gt;&lt;div style=&quot;font-size: 14px;&quot;&gt;kern/syscall_all.c&lt;/div&gt;" style="rounded=1;whiteSpace=wrap;html=1;fontFamily=Lucida Console;fontSize=14;fontStyle=1" parent="1" vertex="1">
          <mxGeometry x="880" y="1090" width="200" height="60" as="geometry" />
        </mxCell>
        <mxCell id="GS6HpVwLS2942WepslLu-55" style="edgeStyle=orthogonalEdgeStyle;rounded=0;orthogonalLoop=1;jettySize=auto;html=1;entryX=0;entryY=0.5;entryDx=0;entryDy=0;" parent="1" source="GS6HpVwLS2942WepslLu-52" target="-TvTE6vRX-gle3-zoLTQ-11" edge="1">
          <mxGeometry relative="1" as="geometry">
            <Array as="points">
              <mxPoint x="-30" y="1250" />
              <mxPoint x="-30" y="450" />
            </Array>
          </mxGeometry>
        </mxCell>
        <mxCell id="GS6HpVwLS2942WepslLu-52" value="sys_putchar&lt;div style=&quot;font-size: 14px;&quot;&gt;in&lt;/div&gt;&lt;div style=&quot;font-size: 14px;&quot;&gt;kern/syscall_all.c&lt;/div&gt;" style="rounded=1;whiteSpace=wrap;html=1;fontFamily=Lucida Console;fontSize=14;fontStyle=1" parent="1" vertex="1">
          <mxGeometry x="610" y="1220" width="180" height="60" as="geometry" />
        </mxCell>
        <mxCell id="GS6HpVwLS2942WepslLu-58" style="edgeStyle=orthogonalEdgeStyle;rounded=0;orthogonalLoop=1;jettySize=auto;html=1;entryX=0;entryY=0;entryDx=0;entryDy=0;" parent="1" source="GS6HpVwLS2942WepslLu-56" target="-TvTE6vRX-gle3-zoLTQ-11" edge="1">
          <mxGeometry relative="1" as="geometry">
            <Array as="points">
              <mxPoint x="-60" y="1350" />
              <mxPoint x="-60" y="422" />
            </Array>
          </mxGeometry>
        </mxCell>
        <mxCell id="GS6HpVwLS2942WepslLu-56" value="sys_print_cons&lt;div style=&quot;font-size: 14px;&quot;&gt;in&lt;/div&gt;&lt;div style=&quot;font-size: 14px;&quot;&gt;kern/syscall_all.c&lt;/div&gt;" style="rounded=1;whiteSpace=wrap;html=1;fontFamily=Lucida Console;fontSize=14;fontStyle=1" parent="1" vertex="1">
          <mxGeometry x="610" y="1320" width="180" height="60" as="geometry" />
        </mxCell>
        <mxCell id="GS6HpVwLS2942WepslLu-59" value="sys_getenvid&lt;div&gt;&lt;span style=&quot;background-color: initial;&quot;&gt;in&lt;/span&gt;&lt;div style=&quot;font-size: 14px;&quot;&gt;kern/syscall_all.c&lt;/div&gt;&lt;/div&gt;" style="rounded=1;whiteSpace=wrap;html=1;fontFamily=Lucida Console;fontSize=14;fontStyle=1" parent="1" vertex="1">
          <mxGeometry x="610" y="1420" width="180" height="60" as="geometry" />
        </mxCell>
        <mxCell id="GS6HpVwLS2942WepslLu-62" style="edgeStyle=orthogonalEdgeStyle;rounded=0;orthogonalLoop=1;jettySize=auto;html=1;entryX=0;entryY=0.5;entryDx=0;entryDy=0;" parent="1" source="GS6HpVwLS2942WepslLu-61" target="-TvTE6vRX-gle3-zoLTQ-121" edge="1">
          <mxGeometry relative="1" as="geometry">
            <Array as="points">
              <mxPoint x="580" y="1550" />
              <mxPoint x="580" y="1080" />
              <mxPoint x="1280" y="1080" />
              <mxPoint x="1280" y="110" />
            </Array>
          </mxGeometry>
        </mxCell>
        <mxCell id="GS6HpVwLS2942WepslLu-61" value="sys_yield&lt;div&gt;&lt;span style=&quot;background-color: initial;&quot;&gt;in&lt;/span&gt;&lt;div style=&quot;font-size: 14px;&quot;&gt;kern/syscall_all.c&lt;/div&gt;&lt;/div&gt;" style="rounded=1;whiteSpace=wrap;html=1;fontFamily=Lucida Console;fontSize=14;fontStyle=1" parent="1" vertex="1">
          <mxGeometry x="610" y="1520" width="180" height="60" as="geometry" />
        </mxCell>
        <mxCell id="GS6HpVwLS2942WepslLu-66" style="edgeStyle=orthogonalEdgeStyle;rounded=0;orthogonalLoop=1;jettySize=auto;html=1;exitX=0;exitY=0.5;exitDx=0;exitDy=0;entryX=0.5;entryY=1;entryDx=0;entryDy=0;" parent="1" source="GS6HpVwLS2942WepslLu-64" target="-TvTE6vRX-gle3-zoLTQ-141" edge="1">
          <mxGeometry relative="1" as="geometry">
            <Array as="points">
              <mxPoint x="550" y="1750" />
              <mxPoint x="550" y="1200" />
              <mxPoint x="1390" y="1200" />
            </Array>
          </mxGeometry>
        </mxCell>
        <mxCell id="GS6HpVwLS2942WepslLu-64" value="sys_env_destroy&lt;div&gt;&lt;span style=&quot;background-color: initial;&quot;&gt;in&lt;/span&gt;&lt;div style=&quot;font-size: 14px;&quot;&gt;kern/syscall_all.c&lt;/div&gt;&lt;/div&gt;" style="rounded=1;whiteSpace=wrap;html=1;fontFamily=Lucida Console;fontSize=14;fontStyle=1" parent="1" vertex="1">
          <mxGeometry x="610" y="1720" width="180" height="60" as="geometry" />
        </mxCell>
        <mxCell id="GS6HpVwLS2942WepslLu-68" style="edgeStyle=orthogonalEdgeStyle;rounded=0;orthogonalLoop=1;jettySize=auto;html=1;entryX=1;entryY=0.5;entryDx=0;entryDy=0;" parent="1" target="-TvTE6vRX-gle3-zoLTQ-134" edge="1">
          <mxGeometry relative="1" as="geometry">
            <mxPoint x="800" y="1840" as="sourcePoint" />
            <Array as="points">
              <mxPoint x="800" y="1840" />
              <mxPoint x="810" y="1840" />
              <mxPoint x="810" y="1650" />
            </Array>
          </mxGeometry>
        </mxCell>
        <mxCell id="GS6HpVwLS2942WepslLu-67" value="sys_set_tlb_mod_entry&lt;div&gt;&lt;span style=&quot;background-color: initial;&quot;&gt;in&lt;/span&gt;&lt;div style=&quot;font-size: 14px;&quot;&gt;kern/syscall_all.c&lt;/div&gt;&lt;/div&gt;" style="rounded=1;whiteSpace=wrap;html=1;fontFamily=Lucida Console;fontSize=14;fontStyle=1" parent="1" vertex="1">
          <mxGeometry x="600" y="1820" width="200" height="60" as="geometry" />
        </mxCell>
        <mxCell id="GS6HpVwLS2942WepslLu-69" value="&lt;div style=&quot;font-size: 14px;&quot;&gt;is_illegal_va&lt;/div&gt;&lt;div style=&quot;font-size: 14px;&quot;&gt;in&lt;/div&gt;&lt;div style=&quot;font-size: 14px;&quot;&gt;kern/syscall_all.c&lt;/div&gt;" style="ellipse;whiteSpace=wrap;html=1;fontFamily=Lucida Console;fontSize=14;fontStyle=1" parent="1" vertex="1">
          <mxGeometry x="240" y="1710" width="200" height="80" as="geometry" />
        </mxCell>
        <mxCell id="GS6HpVwLS2942WepslLu-70" value="&lt;div style=&quot;font-size: 14px;&quot;&gt;is_illegal_va_range&lt;/div&gt;&lt;div style=&quot;font-size: 14px;&quot;&gt;in&lt;/div&gt;&lt;div style=&quot;font-size: 14px;&quot;&gt;kern/syscall_all.c&lt;/div&gt;" style="ellipse;whiteSpace=wrap;html=1;fontFamily=Lucida Console;fontSize=14;fontStyle=1" parent="1" vertex="1">
          <mxGeometry x="240" y="1910" width="200" height="80" as="geometry" />
        </mxCell>
        <mxCell id="GS6HpVwLS2942WepslLu-73" style="edgeStyle=orthogonalEdgeStyle;rounded=0;orthogonalLoop=1;jettySize=auto;html=1;exitX=0;exitY=0.5;exitDx=0;exitDy=0;entryX=1;entryY=0.5;entryDx=0;entryDy=0;" parent="1" source="GS6HpVwLS2942WepslLu-72" target="GS6HpVwLS2942WepslLu-69" edge="1">
          <mxGeometry relative="1" as="geometry">
            <Array as="points">
              <mxPoint x="540" y="1950" />
              <mxPoint x="540" y="1750" />
            </Array>
          </mxGeometry>
        </mxCell>
        <mxCell id="GS6HpVwLS2942WepslLu-75" style="edgeStyle=orthogonalEdgeStyle;rounded=0;orthogonalLoop=1;jettySize=auto;html=1;exitX=0.997;exitY=0.359;exitDx=0;exitDy=0;entryX=1;entryY=0.25;entryDx=0;entryDy=0;entryPerimeter=0;exitPerimeter=0;" parent="1" source="GS6HpVwLS2942WepslLu-72" target="-TvTE6vRX-gle3-zoLTQ-134" edge="1">
          <mxGeometry relative="1" as="geometry">
            <Array as="points">
              <mxPoint x="789" y="1940" />
              <mxPoint x="820" y="1940" />
              <mxPoint x="820" y="1630" />
            </Array>
          </mxGeometry>
        </mxCell>
        <mxCell id="GS6HpVwLS2942WepslLu-76" style="edgeStyle=orthogonalEdgeStyle;rounded=0;orthogonalLoop=1;jettySize=auto;html=1;exitX=1;exitY=0.75;exitDx=0;exitDy=0;entryX=1;entryY=0.75;entryDx=0;entryDy=0;" parent="1" source="GS6HpVwLS2942WepslLu-72" target="-TvTE6vRX-gle3-zoLTQ-49" edge="1">
          <mxGeometry relative="1" as="geometry">
            <Array as="points">
              <mxPoint x="840" y="1965" />
              <mxPoint x="840" y="655" />
            </Array>
          </mxGeometry>
        </mxCell>
        <mxCell id="GS6HpVwLS2942WepslLu-77" style="edgeStyle=orthogonalEdgeStyle;rounded=0;orthogonalLoop=1;jettySize=auto;html=1;exitX=0.5;exitY=1;exitDx=0;exitDy=0;entryX=0.25;entryY=0;entryDx=0;entryDy=0;" parent="1" source="GS6HpVwLS2942WepslLu-72" target="-TvTE6vRX-gle3-zoLTQ-61" edge="1">
          <mxGeometry relative="1" as="geometry">
            <Array as="points">
              <mxPoint x="700" y="2000" />
              <mxPoint x="-80" y="2000" />
              <mxPoint x="-80" y="590" />
              <mxPoint x="260" y="590" />
            </Array>
          </mxGeometry>
        </mxCell>
        <mxCell id="GS6HpVwLS2942WepslLu-72" value="sys_mem_alloc&lt;div&gt;&lt;span style=&quot;background-color: initial;&quot;&gt;in&lt;/span&gt;&lt;div style=&quot;font-size: 14px;&quot;&gt;kern/syscall_all.c&lt;/div&gt;&lt;/div&gt;" style="rounded=1;whiteSpace=wrap;html=1;fontFamily=Lucida Console;fontSize=14;fontStyle=1" parent="1" vertex="1">
          <mxGeometry x="610" y="1920" width="180" height="60" as="geometry" />
        </mxCell>
        <mxCell id="lfMkDHr9ZB22BNDIEuPk-2" style="edgeStyle=orthogonalEdgeStyle;rounded=0;orthogonalLoop=1;jettySize=auto;html=1;exitX=0;exitY=0.25;exitDx=0;exitDy=0;entryX=1;entryY=1;entryDx=0;entryDy=0;" edge="1" parent="1" source="lfMkDHr9ZB22BNDIEuPk-1" target="GS6HpVwLS2942WepslLu-69">
          <mxGeometry relative="1" as="geometry">
            <Array as="points">
              <mxPoint x="520" y="2035" />
              <mxPoint x="520" y="1778" />
            </Array>
          </mxGeometry>
        </mxCell>
        <mxCell id="lfMkDHr9ZB22BNDIEuPk-3" style="edgeStyle=orthogonalEdgeStyle;rounded=0;orthogonalLoop=1;jettySize=auto;html=1;exitX=0;exitY=0.75;exitDx=0;exitDy=0;entryX=1;entryY=0.5;entryDx=0;entryDy=0;" edge="1" parent="1" source="lfMkDHr9ZB22BNDIEuPk-1" target="GS6HpVwLS2942WepslLu-70">
          <mxGeometry relative="1" as="geometry">
            <Array as="points">
              <mxPoint x="500" y="2065" />
              <mxPoint x="500" y="1950" />
            </Array>
          </mxGeometry>
        </mxCell>
        <mxCell id="lfMkDHr9ZB22BNDIEuPk-4" style="edgeStyle=orthogonalEdgeStyle;rounded=0;orthogonalLoop=1;jettySize=auto;html=1;exitX=0.25;exitY=0;exitDx=0;exitDy=0;entryX=0;entryY=0.5;entryDx=0;entryDy=0;" edge="1" parent="1" source="lfMkDHr9ZB22BNDIEuPk-1" target="-TvTE6vRX-gle3-zoLTQ-134">
          <mxGeometry relative="1" as="geometry">
            <Array as="points">
              <mxPoint x="655" y="1990" />
              <mxPoint x="590" y="1990" />
              <mxPoint x="590" y="1650" />
            </Array>
          </mxGeometry>
        </mxCell>
        <mxCell id="lfMkDHr9ZB22BNDIEuPk-5" style="edgeStyle=orthogonalEdgeStyle;rounded=0;orthogonalLoop=1;jettySize=auto;html=1;exitX=0.25;exitY=1;exitDx=0;exitDy=0;entryX=0.25;entryY=1;entryDx=0;entryDy=0;" edge="1" parent="1" source="lfMkDHr9ZB22BNDIEuPk-1" target="-TvTE6vRX-gle3-zoLTQ-72">
          <mxGeometry relative="1" as="geometry" />
        </mxCell>
        <mxCell id="lfMkDHr9ZB22BNDIEuPk-6" style="edgeStyle=orthogonalEdgeStyle;rounded=0;orthogonalLoop=1;jettySize=auto;html=1;exitX=0.5;exitY=1;exitDx=0;exitDy=0;entryX=0.25;entryY=1;entryDx=0;entryDy=0;" edge="1" parent="1" source="lfMkDHr9ZB22BNDIEuPk-1" target="-TvTE6vRX-gle3-zoLTQ-61">
          <mxGeometry relative="1" as="geometry">
            <Array as="points">
              <mxPoint x="700" y="2110" />
              <mxPoint x="-10" y="2110" />
              <mxPoint x="-10" y="700" />
              <mxPoint x="260" y="700" />
            </Array>
          </mxGeometry>
        </mxCell>
        <mxCell id="lfMkDHr9ZB22BNDIEuPk-1" value="sys_mem_map&lt;div&gt;&lt;span style=&quot;background-color: initial;&quot;&gt;in&lt;/span&gt;&lt;div style=&quot;font-size: 14px;&quot;&gt;kern/syscall_all.c&lt;/div&gt;&lt;/div&gt;" style="rounded=1;whiteSpace=wrap;html=1;fontFamily=Lucida Console;fontSize=14;fontStyle=1" vertex="1" parent="1">
          <mxGeometry x="610" y="2020" width="180" height="60" as="geometry" />
        </mxCell>
        <mxCell id="lfMkDHr9ZB22BNDIEuPk-7" value="" style="edgeStyle=orthogonalEdgeStyle;rounded=0;orthogonalLoop=1;jettySize=auto;html=1;dashed=1;strokeWidth=2;" edge="1" parent="1">
          <mxGeometry relative="1" as="geometry">
            <mxPoint x="880" y="2049.5" as="sourcePoint" />
            <mxPoint x="790" y="2049.5" as="targetPoint" />
          </mxGeometry>
        </mxCell>
        <mxCell id="lfMkDHr9ZB22BNDIEuPk-18" style="edgeStyle=orthogonalEdgeStyle;rounded=0;orthogonalLoop=1;jettySize=auto;html=1;exitX=0.5;exitY=1;exitDx=0;exitDy=0;entryX=1;entryY=0;entryDx=0;entryDy=0;" edge="1" parent="1" source="lfMkDHr9ZB22BNDIEuPk-8" target="GS6HpVwLS2942WepslLu-70">
          <mxGeometry relative="1" as="geometry">
            <Array as="points">
              <mxPoint x="1850" y="1300" />
              <mxPoint x="480" y="1300" />
              <mxPoint x="480" y="1922" />
            </Array>
          </mxGeometry>
        </mxCell>
        <mxCell id="lfMkDHr9ZB22BNDIEuPk-19" style="edgeStyle=orthogonalEdgeStyle;rounded=0;orthogonalLoop=1;jettySize=auto;html=1;exitX=0.5;exitY=0;exitDx=0;exitDy=0;entryX=0;entryY=0;entryDx=0;entryDy=0;" edge="1" parent="1" source="lfMkDHr9ZB22BNDIEuPk-8" target="-TvTE6vRX-gle3-zoLTQ-134">
          <mxGeometry relative="1" as="geometry">
            <Array as="points">
              <mxPoint x="1850" y="1210" />
              <mxPoint x="560" y="1210" />
              <mxPoint x="560" y="1622" />
            </Array>
          </mxGeometry>
        </mxCell>
        <mxCell id="lfMkDHr9ZB22BNDIEuPk-8" value="sys_set_trapframe&lt;div style=&quot;font-size: 14px;&quot;&gt;in&lt;/div&gt;&lt;div style=&quot;font-size: 14px;&quot;&gt;kern/syscall_all.c&lt;/div&gt;" style="rounded=1;whiteSpace=wrap;html=1;fontFamily=Lucida Console;fontSize=14;fontStyle=1" vertex="1" parent="1">
          <mxGeometry x="1760" y="1220" width="180" height="60" as="geometry" />
        </mxCell>
        <mxCell id="lfMkDHr9ZB22BNDIEuPk-11" style="edgeStyle=orthogonalEdgeStyle;rounded=0;orthogonalLoop=1;jettySize=auto;html=1;exitX=0.25;exitY=1;exitDx=0;exitDy=0;entryX=0;entryY=0;entryDx=0;entryDy=0;" edge="1" parent="1" source="lfMkDHr9ZB22BNDIEuPk-9" target="GS6HpVwLS2942WepslLu-69">
          <mxGeometry relative="1" as="geometry">
            <Array as="points">
              <mxPoint x="1805" y="2130" />
              <mxPoint x="200" y="2130" />
              <mxPoint x="200" y="1722" />
            </Array>
          </mxGeometry>
        </mxCell>
        <mxCell id="lfMkDHr9ZB22BNDIEuPk-13" style="edgeStyle=orthogonalEdgeStyle;rounded=0;orthogonalLoop=1;jettySize=auto;html=1;exitX=0.5;exitY=1;exitDx=0;exitDy=0;entryX=0.25;entryY=1;entryDx=0;entryDy=0;" edge="1" parent="1" source="lfMkDHr9ZB22BNDIEuPk-9" target="-TvTE6vRX-gle3-zoLTQ-67">
          <mxGeometry relative="1" as="geometry">
            <Array as="points">
              <mxPoint x="1850" y="2160" />
              <mxPoint x="50" y="2160" />
              <mxPoint x="50" y="810" />
              <mxPoint x="260" y="810" />
            </Array>
          </mxGeometry>
        </mxCell>
        <mxCell id="lfMkDHr9ZB22BNDIEuPk-9" value="sys_mem_unmap&lt;div style=&quot;font-size: 14px;&quot;&gt;in&lt;/div&gt;&lt;div style=&quot;font-size: 14px;&quot;&gt;kern/syscall_all.c&lt;/div&gt;" style="rounded=1;whiteSpace=wrap;html=1;fontFamily=Lucida Console;fontSize=14;fontStyle=1" vertex="1" parent="1">
          <mxGeometry x="1760" y="2020" width="180" height="60" as="geometry" />
        </mxCell>
        <mxCell id="lfMkDHr9ZB22BNDIEuPk-12" style="edgeStyle=orthogonalEdgeStyle;rounded=0;orthogonalLoop=1;jettySize=auto;html=1;exitX=0.25;exitY=0;exitDx=0;exitDy=0;entryX=1;entryY=0.75;entryDx=0;entryDy=0;entryPerimeter=0;" edge="1" parent="1" source="lfMkDHr9ZB22BNDIEuPk-9" target="-TvTE6vRX-gle3-zoLTQ-134">
          <mxGeometry relative="1" as="geometry">
            <Array as="points">
              <mxPoint x="1805" y="2000" />
              <mxPoint x="1120" y="2000" />
              <mxPoint x="1120" y="1670" />
            </Array>
          </mxGeometry>
        </mxCell>
        <mxCell id="lfMkDHr9ZB22BNDIEuPk-16" style="edgeStyle=orthogonalEdgeStyle;rounded=0;orthogonalLoop=1;jettySize=auto;html=1;exitX=0.5;exitY=0;exitDx=0;exitDy=0;entryX=1;entryY=0;entryDx=0;entryDy=0;" edge="1" parent="1" source="lfMkDHr9ZB22BNDIEuPk-14" target="-TvTE6vRX-gle3-zoLTQ-134">
          <mxGeometry relative="1" as="geometry">
            <Array as="points">
              <mxPoint x="1850" y="1910" />
              <mxPoint x="1110" y="1910" />
              <mxPoint x="1110" y="1622" />
            </Array>
          </mxGeometry>
        </mxCell>
        <mxCell id="lfMkDHr9ZB22BNDIEuPk-14" value="sys_set_env_status&lt;div style=&quot;font-size: 14px;&quot;&gt;in&lt;/div&gt;&lt;div style=&quot;font-size: 14px;&quot;&gt;kern/syscall_all.c&lt;/div&gt;" style="rounded=1;whiteSpace=wrap;html=1;fontFamily=Lucida Console;fontSize=14;fontStyle=1" vertex="1" parent="1">
          <mxGeometry x="1760" y="1920" width="180" height="60" as="geometry" />
        </mxCell>
        <mxCell id="lfMkDHr9ZB22BNDIEuPk-15" style="edgeStyle=orthogonalEdgeStyle;rounded=0;orthogonalLoop=1;jettySize=auto;html=1;exitX=1;exitY=0.5;exitDx=0;exitDy=0;entryX=0;entryY=0.5;entryDx=0;entryDy=0;strokeWidth=2;dashed=1;" edge="1" parent="1">
          <mxGeometry relative="1" as="geometry">
            <mxPoint x="1600" y="1949.5" as="sourcePoint" />
            <mxPoint x="1760" y="1949.5" as="targetPoint" />
          </mxGeometry>
        </mxCell>
        <mxCell id="lfMkDHr9ZB22BNDIEuPk-20" value="sys_panic&lt;div style=&quot;font-size: 14px;&quot;&gt;in&lt;/div&gt;&lt;div style=&quot;font-size: 14px;&quot;&gt;kern/syscall_all.c&lt;/div&gt;" style="rounded=1;whiteSpace=wrap;html=1;fontFamily=Lucida Console;fontSize=14;fontStyle=1" vertex="1" parent="1">
          <mxGeometry x="1760" y="1320" width="180" height="60" as="geometry" />
        </mxCell>
        <mxCell id="lfMkDHr9ZB22BNDIEuPk-24" style="edgeStyle=orthogonalEdgeStyle;rounded=0;orthogonalLoop=1;jettySize=auto;html=1;exitX=0.5;exitY=0;exitDx=0;exitDy=0;entryX=1;entryY=0;entryDx=0;entryDy=0;" edge="1" parent="1" source="lfMkDHr9ZB22BNDIEuPk-22" target="GS6HpVwLS2942WepslLu-69">
          <mxGeometry relative="1" as="geometry" />
        </mxCell>
        <mxCell id="lfMkDHr9ZB22BNDIEuPk-25" style="edgeStyle=orthogonalEdgeStyle;rounded=0;orthogonalLoop=1;jettySize=auto;html=1;exitX=1;exitY=0.5;exitDx=0;exitDy=0;entryX=1;entryY=0.25;entryDx=0;entryDy=0;" edge="1" parent="1" source="lfMkDHr9ZB22BNDIEuPk-22" target="-TvTE6vRX-gle3-zoLTQ-121">
          <mxGeometry relative="1" as="geometry" />
        </mxCell>
        <mxCell id="lfMkDHr9ZB22BNDIEuPk-22" value="sys_ipc_recv&lt;div style=&quot;font-size: 14px;&quot;&gt;in&lt;/div&gt;&lt;div style=&quot;font-size: 14px;&quot;&gt;kern/syscall_all.c&lt;/div&gt;" style="rounded=1;whiteSpace=wrap;html=1;fontFamily=Lucida Console;fontSize=14;fontStyle=1" vertex="1" parent="1">
          <mxGeometry x="1760" y="1520" width="180" height="60" as="geometry" />
        </mxCell>
        <mxCell id="lfMkDHr9ZB22BNDIEuPk-27" style="edgeStyle=orthogonalEdgeStyle;rounded=0;orthogonalLoop=1;jettySize=auto;html=1;exitX=0.25;exitY=0;exitDx=0;exitDy=0;entryX=0.5;entryY=0;entryDx=0;entryDy=0;" edge="1" parent="1" source="lfMkDHr9ZB22BNDIEuPk-26" target="GS6HpVwLS2942WepslLu-69">
          <mxGeometry relative="1" as="geometry" />
        </mxCell>
        <mxCell id="lfMkDHr9ZB22BNDIEuPk-28" style="edgeStyle=orthogonalEdgeStyle;rounded=0;orthogonalLoop=1;jettySize=auto;html=1;exitX=0.5;exitY=0;exitDx=0;exitDy=0;entryX=0;entryY=1;entryDx=0;entryDy=0;" edge="1" parent="1" source="lfMkDHr9ZB22BNDIEuPk-26" target="-TvTE6vRX-gle3-zoLTQ-134">
          <mxGeometry relative="1" as="geometry">
            <Array as="points">
              <mxPoint x="1850" y="1390" />
              <mxPoint x="320" y="1390" />
              <mxPoint x="320" y="1678" />
            </Array>
          </mxGeometry>
        </mxCell>
        <mxCell id="lfMkDHr9ZB22BNDIEuPk-29" style="edgeStyle=orthogonalEdgeStyle;rounded=0;orthogonalLoop=1;jettySize=auto;html=1;exitX=0.75;exitY=0;exitDx=0;exitDy=0;" edge="1" parent="1" source="lfMkDHr9ZB22BNDIEuPk-26">
          <mxGeometry relative="1" as="geometry">
            <mxPoint x="70" y="790" as="targetPoint" />
            <Array as="points">
              <mxPoint x="1895" y="1390" />
              <mxPoint x="1980" y="1390" />
              <mxPoint x="1980" y="1180" />
              <mxPoint x="70" y="1180" />
            </Array>
          </mxGeometry>
        </mxCell>
        <mxCell id="lfMkDHr9ZB22BNDIEuPk-30" style="edgeStyle=orthogonalEdgeStyle;rounded=0;orthogonalLoop=1;jettySize=auto;html=1;exitX=1;exitY=0.5;exitDx=0;exitDy=0;entryX=1;entryY=0.25;entryDx=0;entryDy=0;" edge="1" parent="1" source="lfMkDHr9ZB22BNDIEuPk-26" target="-TvTE6vRX-gle3-zoLTQ-61">
          <mxGeometry relative="1" as="geometry">
            <Array as="points">
              <mxPoint x="2000" y="1450" />
              <mxPoint x="2000" y="700" />
              <mxPoint x="400" y="700" />
              <mxPoint x="400" y="625" />
            </Array>
          </mxGeometry>
        </mxCell>
        <mxCell id="lfMkDHr9ZB22BNDIEuPk-26" value="sys_ipc_try_send&lt;div style=&quot;font-size: 14px;&quot;&gt;in&lt;/div&gt;&lt;div style=&quot;font-size: 14px;&quot;&gt;kern/syscall_all.c&lt;/div&gt;" style="rounded=1;whiteSpace=wrap;html=1;fontFamily=Lucida Console;fontSize=14;fontStyle=1" vertex="1" parent="1">
          <mxGeometry x="1760" y="1420" width="180" height="60" as="geometry" />
        </mxCell>
        <mxCell id="lfMkDHr9ZB22BNDIEuPk-34" style="edgeStyle=orthogonalEdgeStyle;rounded=0;orthogonalLoop=1;jettySize=auto;html=1;exitX=1;exitY=0.5;exitDx=0;exitDy=0;entryX=0;entryY=0.5;entryDx=0;entryDy=0;" edge="1" parent="1" source="lfMkDHr9ZB22BNDIEuPk-31" target="lfMkDHr9ZB22BNDIEuPk-33">
          <mxGeometry relative="1" as="geometry" />
        </mxCell>
        <mxCell id="lfMkDHr9ZB22BNDIEuPk-31" value="sys_cgetc&lt;div style=&quot;font-size: 14px;&quot;&gt;in&lt;/div&gt;&lt;div style=&quot;font-size: 14px;&quot;&gt;kern/syscall_all.c&lt;/div&gt;" style="rounded=1;whiteSpace=wrap;html=1;fontFamily=Lucida Console;fontSize=14;fontStyle=1" vertex="1" parent="1">
          <mxGeometry x="1760" y="1620" width="180" height="60" as="geometry" />
        </mxCell>
        <mxCell id="lfMkDHr9ZB22BNDIEuPk-33" value="scancharc&lt;div style=&quot;font-size: 14px;&quot;&gt;in&lt;/div&gt;&lt;div style=&quot;font-size: 14px;&quot;&gt;kern/machine.c&lt;/div&gt;" style="ellipse;whiteSpace=wrap;html=1;fontFamily=Lucida Console;fontSize=14;fontStyle=1" vertex="1" parent="1">
          <mxGeometry x="2120" y="1610" width="160" height="80" as="geometry" />
        </mxCell>
        <mxCell id="lfMkDHr9ZB22BNDIEuPk-35" value="sys_write_dev&lt;div style=&quot;font-size: 14px;&quot;&gt;in&lt;/div&gt;&lt;div style=&quot;font-size: 14px;&quot;&gt;kern/syscall_all.c&lt;/div&gt;" style="rounded=1;whiteSpace=wrap;html=1;fontFamily=Lucida Console;fontSize=14;fontStyle=1" vertex="1" parent="1">
          <mxGeometry x="1760" y="1720" width="180" height="60" as="geometry" />
        </mxCell>
        <mxCell id="lfMkDHr9ZB22BNDIEuPk-37" value="sys_read_dev&lt;div style=&quot;font-size: 14px;&quot;&gt;in&lt;/div&gt;&lt;div style=&quot;font-size: 14px;&quot;&gt;kern/syscall_all.c&lt;/div&gt;" style="rounded=1;whiteSpace=wrap;html=1;fontFamily=Lucida Console;fontSize=14;fontStyle=1" vertex="1" parent="1">
          <mxGeometry x="1760" y="1820" width="180" height="60" as="geometry" />
        </mxCell>
        <mxCell id="lfMkDHr9ZB22BNDIEuPk-43" style="edgeStyle=orthogonalEdgeStyle;rounded=0;orthogonalLoop=1;jettySize=auto;html=1;exitX=0.5;exitY=0;exitDx=0;exitDy=0;entryX=0.75;entryY=1;entryDx=0;entryDy=0;" edge="1" parent="1" source="lfMkDHr9ZB22BNDIEuPk-40" target="GS6HpVwLS2942WepslLu-8">
          <mxGeometry relative="1" as="geometry">
            <Array as="points">
              <mxPoint x="1241" y="2080" />
              <mxPoint x="1100" y="2080" />
              <mxPoint x="1100" y="1900" />
              <mxPoint x="1039" y="1900" />
            </Array>
          </mxGeometry>
        </mxCell>
        <mxCell id="lfMkDHr9ZB22BNDIEuPk-44" value="" style="edgeStyle=orthogonalEdgeStyle;rounded=0;orthogonalLoop=1;jettySize=auto;html=1;" edge="1" parent="1" source="lfMkDHr9ZB22BNDIEuPk-40" target="lfMkDHr9ZB22BNDIEuPk-42">
          <mxGeometry relative="1" as="geometry" />
        </mxCell>
        <mxCell id="lfMkDHr9ZB22BNDIEuPk-46" style="edgeStyle=orthogonalEdgeStyle;rounded=0;orthogonalLoop=1;jettySize=auto;html=1;exitX=0.25;exitY=0;exitDx=0;exitDy=0;entryX=1;entryY=0.75;entryDx=0;entryDy=0;" edge="1" parent="1" source="lfMkDHr9ZB22BNDIEuPk-40" target="GS6HpVwLS2942WepslLu-3">
          <mxGeometry relative="1" as="geometry">
            <Array as="points">
              <mxPoint x="1199" y="2180" />
              <mxPoint x="1140" y="2180" />
              <mxPoint x="1140" y="1700" />
              <mxPoint x="1100" y="1700" />
              <mxPoint x="1100" y="1465" />
            </Array>
          </mxGeometry>
        </mxCell>
        <mxCell id="lfMkDHr9ZB22BNDIEuPk-47" style="edgeStyle=orthogonalEdgeStyle;rounded=0;orthogonalLoop=1;jettySize=auto;html=1;exitX=0.676;exitY=0;exitDx=0;exitDy=0;entryX=1;entryY=0.75;entryDx=0;entryDy=0;exitPerimeter=0;" edge="1" parent="1" source="lfMkDHr9ZB22BNDIEuPk-40" target="GS6HpVwLS2942WepslLu-8">
          <mxGeometry relative="1" as="geometry">
            <Array as="points">
              <mxPoint x="1271" y="2180" />
              <mxPoint x="1270" y="1865" />
            </Array>
          </mxGeometry>
        </mxCell>
        <mxCell id="lfMkDHr9ZB22BNDIEuPk-48" style="edgeStyle=orthogonalEdgeStyle;rounded=0;orthogonalLoop=1;jettySize=auto;html=1;exitX=1;exitY=0.5;exitDx=0;exitDy=0;entryX=0;entryY=0.75;entryDx=0;entryDy=0;" edge="1" parent="1" source="lfMkDHr9ZB22BNDIEuPk-40" target="GS6HpVwLS2942WepslLu-12">
          <mxGeometry relative="1" as="geometry">
            <Array as="points">
              <mxPoint x="1360" y="2230" />
              <mxPoint x="1360" y="1965" />
            </Array>
          </mxGeometry>
        </mxCell>
        <mxCell id="lfMkDHr9ZB22BNDIEuPk-50" style="edgeStyle=orthogonalEdgeStyle;rounded=0;orthogonalLoop=1;jettySize=auto;html=1;exitX=1;exitY=0.75;exitDx=0;exitDy=0;entryX=0;entryY=0.75;entryDx=0;entryDy=0;" edge="1" parent="1" source="lfMkDHr9ZB22BNDIEuPk-40" target="lfMkDHr9ZB22BNDIEuPk-49">
          <mxGeometry relative="1" as="geometry" />
        </mxCell>
        <mxCell id="lfMkDHr9ZB22BNDIEuPk-40" value="fork&lt;div style=&quot;font-size: 14px;&quot;&gt;in&lt;/div&gt;&lt;div style=&quot;font-size: 14px;&quot;&gt;user/lib/fork.c&lt;/div&gt;" style="rounded=1;whiteSpace=wrap;html=1;fontFamily=Lucida Console;fontSize=14;fontStyle=1" vertex="1" parent="1">
          <mxGeometry x="1156" y="2200" width="170" height="60" as="geometry" />
        </mxCell>
        <mxCell id="lfMkDHr9ZB22BNDIEuPk-45" style="edgeStyle=orthogonalEdgeStyle;rounded=0;orthogonalLoop=1;jettySize=auto;html=1;exitX=0.5;exitY=0;exitDx=0;exitDy=0;entryX=0.5;entryY=1;entryDx=0;entryDy=0;" edge="1" parent="1" source="lfMkDHr9ZB22BNDIEuPk-42" target="GS6HpVwLS2942WepslLu-20">
          <mxGeometry relative="1" as="geometry">
            <Array as="points">
              <mxPoint x="980" y="2100" />
              <mxPoint x="1210" y="2100" />
              <mxPoint x="1210" y="2060" />
              <mxPoint x="1241" y="2060" />
            </Array>
          </mxGeometry>
        </mxCell>
        <mxCell id="lfMkDHr9ZB22BNDIEuPk-63" value="" style="edgeStyle=orthogonalEdgeStyle;rounded=0;orthogonalLoop=1;jettySize=auto;html=1;dashed=1;strokeWidth=2;" edge="1" parent="1" source="lfMkDHr9ZB22BNDIEuPk-42" target="lfMkDHr9ZB22BNDIEuPk-62">
          <mxGeometry relative="1" as="geometry" />
        </mxCell>
        <mxCell id="lfMkDHr9ZB22BNDIEuPk-42" value="syscall_exofork&lt;div style=&quot;font-size: 14px;&quot;&gt;in&lt;/div&gt;&lt;div style=&quot;font-size: 14px;&quot;&gt;user/include/lib.h&lt;/div&gt;" style="rounded=1;whiteSpace=wrap;html=1;fontFamily=Lucida Console;fontStyle=1;fontSize=14;" vertex="1" parent="1">
          <mxGeometry x="880" y="2200" width="200" height="60" as="geometry" />
        </mxCell>
        <mxCell id="lfMkDHr9ZB22BNDIEuPk-51" style="edgeStyle=orthogonalEdgeStyle;rounded=0;orthogonalLoop=1;jettySize=auto;html=1;exitX=0.5;exitY=0;exitDx=0;exitDy=0;entryX=1;entryY=0.75;entryDx=0;entryDy=0;" edge="1" parent="1" source="lfMkDHr9ZB22BNDIEuPk-49" target="GS6HpVwLS2942WepslLu-10">
          <mxGeometry relative="1" as="geometry">
            <Array as="points">
              <mxPoint x="1500" y="2120" />
              <mxPoint x="1120" y="2120" />
              <mxPoint x="1120" y="2065" />
            </Array>
          </mxGeometry>
        </mxCell>
        <mxCell id="lfMkDHr9ZB22BNDIEuPk-49" value="duppage&lt;div style=&quot;font-size: 14px;&quot;&gt;in&lt;/div&gt;&lt;div style=&quot;font-size: 14px;&quot;&gt;user/lib/fork.c&lt;/div&gt;" style="rounded=1;whiteSpace=wrap;html=1;fontSize=14;fontFamily=Lucida Console;fontStyle=1" vertex="1" parent="1">
          <mxGeometry x="1420" y="2200" width="160" height="60" as="geometry" />
        </mxCell>
        <mxCell id="lfMkDHr9ZB22BNDIEuPk-54" style="edgeStyle=orthogonalEdgeStyle;rounded=0;orthogonalLoop=1;jettySize=auto;html=1;exitX=0;exitY=0.5;exitDx=0;exitDy=0;entryX=1;entryY=0.75;entryDx=0;entryDy=0;" edge="1" parent="1" source="lfMkDHr9ZB22BNDIEuPk-53" target="GS6HpVwLS2942WepslLu-9">
          <mxGeometry relative="1" as="geometry">
            <Array as="points">
              <mxPoint x="1720" y="2230" />
              <mxPoint x="1720" y="2180" />
              <mxPoint x="1380" y="2180" />
              <mxPoint x="1380" y="2010" />
              <mxPoint x="1110" y="2010" />
              <mxPoint x="1110" y="1965" />
            </Array>
          </mxGeometry>
        </mxCell>
        <mxCell id="lfMkDHr9ZB22BNDIEuPk-56" value="" style="edgeStyle=orthogonalEdgeStyle;rounded=0;orthogonalLoop=1;jettySize=auto;html=1;" edge="1" parent="1" source="lfMkDHr9ZB22BNDIEuPk-53" target="lfMkDHr9ZB22BNDIEuPk-55">
          <mxGeometry relative="1" as="geometry" />
        </mxCell>
        <mxCell id="lfMkDHr9ZB22BNDIEuPk-58" style="edgeStyle=orthogonalEdgeStyle;rounded=0;orthogonalLoop=1;jettySize=auto;html=1;exitX=0.5;exitY=0;exitDx=0;exitDy=0;entryX=0.25;entryY=1;entryDx=0;entryDy=0;" edge="1" parent="1" source="lfMkDHr9ZB22BNDIEuPk-53" target="GS6HpVwLS2942WepslLu-10">
          <mxGeometry relative="1" as="geometry">
            <Array as="points">
              <mxPoint x="1850" y="2190" />
              <mxPoint x="930" y="2190" />
            </Array>
          </mxGeometry>
        </mxCell>
        <mxCell id="lfMkDHr9ZB22BNDIEuPk-60" style="edgeStyle=orthogonalEdgeStyle;rounded=0;orthogonalLoop=1;jettySize=auto;html=1;exitX=0.75;exitY=0;exitDx=0;exitDy=0;entryX=0.75;entryY=1;entryDx=0;entryDy=0;" edge="1" parent="1" source="lfMkDHr9ZB22BNDIEuPk-53" target="GS6HpVwLS2942WepslLu-11">
          <mxGeometry relative="1" as="geometry">
            <Array as="points">
              <mxPoint x="1890" y="2110" />
              <mxPoint x="1550" y="2110" />
            </Array>
          </mxGeometry>
        </mxCell>
        <mxCell id="lfMkDHr9ZB22BNDIEuPk-61" style="edgeStyle=orthogonalEdgeStyle;rounded=0;orthogonalLoop=1;jettySize=auto;html=1;exitX=0.25;exitY=1;exitDx=0;exitDy=0;entryX=1;entryY=0.75;entryDx=0;entryDy=0;" edge="1" parent="1" source="lfMkDHr9ZB22BNDIEuPk-53" target="GS6HpVwLS2942WepslLu-13">
          <mxGeometry relative="1" as="geometry">
            <Array as="points">
              <mxPoint x="1810" y="2280" />
              <mxPoint x="1700" y="2280" />
              <mxPoint x="1700" y="1265" />
            </Array>
          </mxGeometry>
        </mxCell>
        <mxCell id="lfMkDHr9ZB22BNDIEuPk-53" value="&lt;div style=&quot;font-size: 14px;&quot;&gt;cow_entry&lt;/div&gt;&lt;div style=&quot;font-size: 14px;&quot;&gt;in&lt;/div&gt;&lt;div style=&quot;font-size: 14px;&quot;&gt;user/lib/fork.c&lt;/div&gt;" style="rounded=1;whiteSpace=wrap;html=1;fontSize=14;fontFamily=Lucida Console;fontStyle=1" vertex="1" parent="1">
          <mxGeometry x="1770" y="2200" width="160" height="60" as="geometry" />
        </mxCell>
        <mxCell id="lfMkDHr9ZB22BNDIEuPk-55" value="memcpy&lt;div style=&quot;font-size: 14px;&quot;&gt;in&lt;/div&gt;&lt;div style=&quot;font-size: 14px;&quot;&gt;lib/string.c&lt;/div&gt;" style="ellipse;whiteSpace=wrap;html=1;fontFamily=Lucida Console;fontSize=14;fontStyle=1" vertex="1" parent="1">
          <mxGeometry x="2050" y="2190" width="142" height="80" as="geometry" />
        </mxCell>
        <mxCell id="lfMkDHr9ZB22BNDIEuPk-64" style="edgeStyle=orthogonalEdgeStyle;rounded=0;orthogonalLoop=1;jettySize=auto;html=1;exitX=0;exitY=0.5;exitDx=0;exitDy=0;entryX=1;entryY=0.25;entryDx=0;entryDy=0;" edge="1" parent="1" source="lfMkDHr9ZB22BNDIEuPk-62" target="-TvTE6vRX-gle3-zoLTQ-96">
          <mxGeometry relative="1" as="geometry">
            <Array as="points">
              <mxPoint x="570" y="2230" />
              <mxPoint x="570" y="1160" />
              <mxPoint x="800" y="1160" />
              <mxPoint x="800" y="1060" />
              <mxPoint x="1020" y="1060" />
              <mxPoint x="1020" y="95" />
            </Array>
          </mxGeometry>
        </mxCell>
        <mxCell id="lfMkDHr9ZB22BNDIEuPk-62" value="sys_exofork&lt;div&gt;&lt;span style=&quot;background-color: initial;&quot;&gt;in&lt;/span&gt;&lt;div style=&quot;font-size: 14px;&quot;&gt;kern/syscall_all.c&lt;/div&gt;&lt;/div&gt;" style="rounded=1;whiteSpace=wrap;html=1;fontFamily=Lucida Console;fontSize=14;fontStyle=1" vertex="1" parent="1">
          <mxGeometry x="610" y="2200" width="180" height="60" as="geometry" />
        </mxCell>
        <mxCell id="lfMkDHr9ZB22BNDIEuPk-66" style="edgeStyle=orthogonalEdgeStyle;rounded=0;orthogonalLoop=1;jettySize=auto;html=1;exitX=0.5;exitY=0;exitDx=0;exitDy=0;entryX=1;entryY=0.75;entryDx=0;entryDy=0;" edge="1" parent="1" source="lfMkDHr9ZB22BNDIEuPk-65" target="GS6HpVwLS2942WepslLu-15">
          <mxGeometry relative="1" as="geometry">
            <Array as="points">
              <mxPoint x="2200" y="1410" />
              <mxPoint x="1630" y="1410" />
              <mxPoint x="1630" y="1465" />
            </Array>
          </mxGeometry>
        </mxCell>
        <mxCell id="lfMkDHr9ZB22BNDIEuPk-67" style="edgeStyle=orthogonalEdgeStyle;rounded=0;orthogonalLoop=1;jettySize=auto;html=1;exitX=0.5;exitY=1;exitDx=0;exitDy=0;entryX=0.5;entryY=0;entryDx=0;entryDy=0;" edge="1" parent="1" source="lfMkDHr9ZB22BNDIEuPk-65" target="GS6HpVwLS2942WepslLu-4">
          <mxGeometry relative="1" as="geometry">
            <Array as="points">
              <mxPoint x="2200" y="1490" />
              <mxPoint x="980" y="1490" />
            </Array>
          </mxGeometry>
        </mxCell>
        <mxCell id="lfMkDHr9ZB22BNDIEuPk-65" value="ipc_send&lt;div style=&quot;font-size: 14px;&quot;&gt;in&lt;/div&gt;&lt;div style=&quot;font-size: 14px;&quot;&gt;user/lib/ipc.c&lt;/div&gt;" style="rounded=1;whiteSpace=wrap;html=1;fontSize=14;fontFamily=Lucida Console;fontStyle=1" vertex="1" parent="1">
          <mxGeometry x="2130" y="1420" width="140" height="60" as="geometry" />
        </mxCell>
        <mxCell id="lfMkDHr9ZB22BNDIEuPk-69" style="edgeStyle=orthogonalEdgeStyle;rounded=0;orthogonalLoop=1;jettySize=auto;html=1;exitX=0.5;exitY=1;exitDx=0;exitDy=0;entryX=0.5;entryY=1;entryDx=0;entryDy=0;" edge="1" parent="1" source="lfMkDHr9ZB22BNDIEuPk-68" target="GS6HpVwLS2942WepslLu-16">
          <mxGeometry relative="1" as="geometry" />
        </mxCell>
        <mxCell id="lfMkDHr9ZB22BNDIEuPk-68" value="ipc_recv&lt;div style=&quot;font-size: 14px;&quot;&gt;in&lt;/div&gt;&lt;div style=&quot;font-size: 14px;&quot;&gt;user/lib/ipc.c&lt;/div&gt;" style="rounded=1;whiteSpace=wrap;html=1;fontSize=14;fontFamily=Lucida Console;fontStyle=1" vertex="1" parent="1">
          <mxGeometry x="2130" y="1520" width="140" height="60" as="geometry" />
        </mxCell>
        <mxCell id="lfMkDHr9ZB22BNDIEuPk-71" style="edgeStyle=orthogonalEdgeStyle;rounded=0;orthogonalLoop=1;jettySize=auto;html=1;exitX=1;exitY=0.5;exitDx=0;exitDy=0;entryX=0.5;entryY=0;entryDx=0;entryDy=0;" edge="1" parent="1" source="lfMkDHr9ZB22BNDIEuPk-70" target="GS6HpVwLS2942WepslLu-2">
          <mxGeometry relative="1" as="geometry">
            <Array as="points">
              <mxPoint x="300" y="1470" />
              <mxPoint x="300" y="1290" />
              <mxPoint x="980" y="1290" />
            </Array>
          </mxGeometry>
        </mxCell>
        <mxCell id="lfMkDHr9ZB22BNDIEuPk-70" value="debug_flush&lt;div style=&quot;font-size: 14px;&quot;&gt;in&lt;/div&gt;&lt;div style=&quot;font-size: 14px;&quot;&gt;user/lib/debugf.c&lt;/div&gt;" style="rounded=1;whiteSpace=wrap;html=1;fontFamily=Lucida Console;fontSize=14;fontStyle=1" vertex="1" parent="1">
          <mxGeometry x="-450" y="1440" width="170" height="60" as="geometry" />
        </mxCell>
        <mxCell id="lfMkDHr9ZB22BNDIEuPk-73" style="edgeStyle=orthogonalEdgeStyle;rounded=0;orthogonalLoop=1;jettySize=auto;html=1;exitX=0.5;exitY=0;exitDx=0;exitDy=0;entryX=0.5;entryY=1;entryDx=0;entryDy=0;" edge="1" parent="1" source="lfMkDHr9ZB22BNDIEuPk-72" target="lfMkDHr9ZB22BNDIEuPk-70">
          <mxGeometry relative="1" as="geometry" />
        </mxCell>
        <mxCell id="lfMkDHr9ZB22BNDIEuPk-72" value="debug_output&lt;div style=&quot;font-size: 14px;&quot;&gt;in&lt;/div&gt;&lt;div style=&quot;font-size: 14px;&quot;&gt;user/lib/debugf.c&lt;/div&gt;" style="rounded=1;whiteSpace=wrap;html=1;fontFamily=Lucida Console;fontSize=14;fontStyle=1" vertex="1" parent="1">
          <mxGeometry x="-450" y="1560" width="170" height="60" as="geometry" />
        </mxCell>
        <mxCell id="lfMkDHr9ZB22BNDIEuPk-75" style="edgeStyle=orthogonalEdgeStyle;rounded=0;orthogonalLoop=1;jettySize=auto;html=1;exitX=0;exitY=0.5;exitDx=0;exitDy=0;entryX=0;entryY=0.5;entryDx=0;entryDy=0;" edge="1" parent="1" source="lfMkDHr9ZB22BNDIEuPk-74" target="lfMkDHr9ZB22BNDIEuPk-70">
          <mxGeometry relative="1" as="geometry">
            <Array as="points">
              <mxPoint x="-490" y="1710" />
              <mxPoint x="-490" y="1470" />
            </Array>
          </mxGeometry>
        </mxCell>
        <mxCell id="lfMkDHr9ZB22BNDIEuPk-76" value="" style="edgeStyle=orthogonalEdgeStyle;rounded=0;orthogonalLoop=1;jettySize=auto;html=1;" edge="1" parent="1" source="lfMkDHr9ZB22BNDIEuPk-74" target="lfMkDHr9ZB22BNDIEuPk-72">
          <mxGeometry relative="1" as="geometry" />
        </mxCell>
        <mxCell id="lfMkDHr9ZB22BNDIEuPk-77" style="edgeStyle=orthogonalEdgeStyle;rounded=0;orthogonalLoop=1;jettySize=auto;html=1;exitX=1;exitY=0.5;exitDx=0;exitDy=0;entryX=0;entryY=0.25;entryDx=0;entryDy=0;" edge="1" parent="1" source="lfMkDHr9ZB22BNDIEuPk-74" target="-TvTE6vRX-gle3-zoLTQ-7">
          <mxGeometry relative="1" as="geometry">
            <Array as="points">
              <mxPoint x="-120" y="1710" />
              <mxPoint x="-120" y="195" />
            </Array>
          </mxGeometry>
        </mxCell>
        <mxCell id="lfMkDHr9ZB22BNDIEuPk-74" value="vdebugf&lt;div style=&quot;font-size: 14px;&quot;&gt;in&lt;/div&gt;&lt;div style=&quot;font-size: 14px;&quot;&gt;user/lib/debugf.c&lt;/div&gt;" style="rounded=1;whiteSpace=wrap;html=1;fontFamily=Lucida Console;fontSize=14;fontStyle=1" vertex="1" parent="1">
          <mxGeometry x="-450" y="1680" width="170" height="60" as="geometry" />
        </mxCell>
        <mxCell id="lfMkDHr9ZB22BNDIEuPk-79" value="" style="edgeStyle=orthogonalEdgeStyle;rounded=0;orthogonalLoop=1;jettySize=auto;html=1;" edge="1" parent="1" source="lfMkDHr9ZB22BNDIEuPk-78" target="lfMkDHr9ZB22BNDIEuPk-74">
          <mxGeometry relative="1" as="geometry" />
        </mxCell>
        <mxCell id="lfMkDHr9ZB22BNDIEuPk-78" value="debugf&lt;div style=&quot;font-size: 14px;&quot;&gt;in&lt;/div&gt;&lt;div style=&quot;font-size: 14px;&quot;&gt;user/lib/debugf.c&lt;/div&gt;" style="rounded=1;whiteSpace=wrap;html=1;fontFamily=Lucida Console;fontSize=14;fontStyle=1" vertex="1" parent="1">
          <mxGeometry x="-450" y="1800" width="170" height="60" as="geometry" />
        </mxCell>
        <mxCell id="lfMkDHr9ZB22BNDIEuPk-81" value="" style="edgeStyle=orthogonalEdgeStyle;rounded=0;orthogonalLoop=1;jettySize=auto;html=1;" edge="1" parent="1" source="lfMkDHr9ZB22BNDIEuPk-80" target="lfMkDHr9ZB22BNDIEuPk-78">
          <mxGeometry relative="1" as="geometry" />
        </mxCell>
        <mxCell id="lfMkDHr9ZB22BNDIEuPk-82" style="edgeStyle=orthogonalEdgeStyle;rounded=0;orthogonalLoop=1;jettySize=auto;html=1;exitX=0.5;exitY=0;exitDx=0;exitDy=0;entryX=0.25;entryY=1;entryDx=0;entryDy=0;" edge="1" parent="1" source="lfMkDHr9ZB22BNDIEuPk-80" target="lfMkDHr9ZB22BNDIEuPk-74">
          <mxGeometry relative="1" as="geometry" />
        </mxCell>
        <mxCell id="lfMkDHr9ZB22BNDIEuPk-84" value="" style="edgeStyle=orthogonalEdgeStyle;rounded=0;orthogonalLoop=1;jettySize=auto;html=1;" edge="1" parent="1" source="lfMkDHr9ZB22BNDIEuPk-80" target="lfMkDHr9ZB22BNDIEuPk-83">
          <mxGeometry relative="1" as="geometry" />
        </mxCell>
        <mxCell id="lfMkDHr9ZB22BNDIEuPk-80" value="&lt;div style=&quot;font-size: 14px;&quot;&gt;_user_panic&lt;/div&gt;&lt;div style=&quot;font-size: 14px;&quot;&gt;in&lt;/div&gt;&lt;div style=&quot;font-size: 14px;&quot;&gt;user/lib/debugf.c&lt;/div&gt;" style="rounded=1;whiteSpace=wrap;html=1;fontFamily=Lucida Console;fontSize=14;fontStyle=1" vertex="1" parent="1">
          <mxGeometry x="-690" y="1800" width="170" height="60" as="geometry" />
        </mxCell>
        <mxCell id="lfMkDHr9ZB22BNDIEuPk-86" value="" style="edgeStyle=orthogonalEdgeStyle;rounded=0;orthogonalLoop=1;jettySize=auto;html=1;" edge="1" parent="1" source="lfMkDHr9ZB22BNDIEuPk-83" target="lfMkDHr9ZB22BNDIEuPk-85">
          <mxGeometry relative="1" as="geometry" />
        </mxCell>
        <mxCell id="lfMkDHr9ZB22BNDIEuPk-83" value="exit&lt;div style=&quot;font-size: 14px;&quot;&gt;in&lt;/div&gt;&lt;div style=&quot;font-size: 14px;&quot;&gt;user/lib/libos.c&lt;/div&gt;" style="rounded=1;whiteSpace=wrap;html=1;fontFamily=Lucida Console;fontSize=14;fontStyle=1" vertex="1" parent="1">
          <mxGeometry x="-682.5" y="1920" width="155" height="60" as="geometry" />
        </mxCell>
        <mxCell id="lfMkDHr9ZB22BNDIEuPk-87" style="edgeStyle=orthogonalEdgeStyle;rounded=0;orthogonalLoop=1;jettySize=auto;html=1;entryX=0.5;entryY=1;entryDx=0;entryDy=0;exitX=1;exitY=0.5;exitDx=0;exitDy=0;" edge="1" parent="1" source="lfMkDHr9ZB22BNDIEuPk-83" target="GS6HpVwLS2942WepslLu-7">
          <mxGeometry relative="1" as="geometry">
            <mxPoint x="980" y="1790" as="targetPoint" />
            <Array as="points">
              <mxPoint x="168" y="1950" />
              <mxPoint x="168" y="1800" />
              <mxPoint x="980" y="1800" />
            </Array>
          </mxGeometry>
        </mxCell>
        <mxCell id="lfMkDHr9ZB22BNDIEuPk-85" value="close_all&lt;div style=&quot;font-size: 14px;&quot;&gt;in&lt;/div&gt;&lt;div style=&quot;font-size: 14px;&quot;&gt;unknown&lt;/div&gt;" style="rounded=1;whiteSpace=wrap;html=1;fontFamily=Lucida Console;fontSize=14;fontStyle=1" vertex="1" parent="1">
          <mxGeometry x="-665" y="2040" width="120" height="60" as="geometry" />
        </mxCell>
        <mxCell id="lfMkDHr9ZB22BNDIEuPk-89" style="edgeStyle=orthogonalEdgeStyle;rounded=0;orthogonalLoop=1;jettySize=auto;html=1;entryX=0.5;entryY=1;entryDx=0;entryDy=0;" edge="1" parent="1" source="lfMkDHr9ZB22BNDIEuPk-88" target="lfMkDHr9ZB22BNDIEuPk-78">
          <mxGeometry relative="1" as="geometry" />
        </mxCell>
        <mxCell id="lfMkDHr9ZB22BNDIEuPk-90" style="edgeStyle=orthogonalEdgeStyle;rounded=0;orthogonalLoop=1;jettySize=auto;html=1;exitX=1;exitY=0.75;exitDx=0;exitDy=0;entryX=1;entryY=0.75;entryDx=0;entryDy=0;" edge="1" parent="1" source="lfMkDHr9ZB22BNDIEuPk-88" target="lfMkDHr9ZB22BNDIEuPk-74">
          <mxGeometry relative="1" as="geometry" />
        </mxCell>
        <mxCell id="lfMkDHr9ZB22BNDIEuPk-91" style="edgeStyle=orthogonalEdgeStyle;rounded=0;orthogonalLoop=1;jettySize=auto;html=1;exitX=0.5;exitY=1;exitDx=0;exitDy=0;entryX=1;entryY=0.75;entryDx=0;entryDy=0;" edge="1" parent="1" source="lfMkDHr9ZB22BNDIEuPk-88" target="GS6HpVwLS2942WepslLu-14">
          <mxGeometry relative="1" as="geometry">
            <Array as="points">
              <mxPoint x="-605" y="2280" />
              <mxPoint x="1670" y="2280" />
              <mxPoint x="1670" y="1365" />
            </Array>
          </mxGeometry>
        </mxCell>
        <mxCell id="lfMkDHr9ZB22BNDIEuPk-88" value="&lt;div style=&quot;font-size: 14px;&quot;&gt;_user_halt&lt;/div&gt;&lt;div style=&quot;font-size: 14px;&quot;&gt;in&lt;/div&gt;&lt;div style=&quot;font-size: 14px;&quot;&gt;user/lib/debugf.c&lt;/div&gt;" style="rounded=1;whiteSpace=wrap;html=1;fontFamily=Lucida Console;fontSize=14;fontStyle=1" vertex="1" parent="1">
          <mxGeometry x="-690" y="2160" width="170" height="60" as="geometry" />
        </mxCell>
      </root>
    </mxGraphModel>
  </diagram>
</mxfile>
